solid Created by Gmsh
facet normal 0.142211 0.0382785 -0.989096
  outer loop
    vertex 3.57441 16.8216 -12.1733
    vertex 2.63158 14.1745 -12.4113
    vertex 0 16.8216 -12.6873
  endloop
endfacet
facet normal 0.104278 0 -0.994548
  outer loop
    vertex 0 16.8216 -12.6873
    vertex 2.63158 14.1745 -12.4113
    vertex 0 13.207 -12.6873
  endloop
endfacet
facet normal 0.142211 0.0382785 0.989096
  outer loop
    vertex 1.55374e-015 16.8216 12.6873
    vertex 2.63158 14.1745 12.4113
    vertex 3.57441 16.8216 12.1733
  endloop
endfacet
facet normal 0.104278 -0 0.994548
  outer loop
    vertex 1.55374e-015 13.207 12.6873
    vertex 2.63158 14.1745 12.4113
    vertex 1.55374e-015 16.8216 12.6873
  endloop
endfacet
facet normal 0.104278 -0 0.994548
  outer loop
    vertex 1.55374e-015 2.36308 12.6873
    vertex 2.63158 5.01017 12.4113
    vertex 1.55374e-015 5.97771 12.6873
  endloop
endfacet
facet normal 0.142211 -0.0382785 0.989096
  outer loop
    vertex 3.57441 2.36308 12.1733
    vertex 2.63158 5.01017 12.4113
    vertex 1.55374e-015 2.36308 12.6873
  endloop
endfacet
facet normal 0.142211 -0.0382785 -0.989096
  outer loop
    vertex 0 2.36308 -12.6873
    vertex 2.63158 5.01017 -12.4113
    vertex 3.57441 2.36308 -12.1733
  endloop
endfacet
facet normal 0.104278 0 -0.994548
  outer loop
    vertex 0 5.97771 -12.6873
    vertex 2.63158 5.01017 -12.4113
    vertex 0 2.36308 -12.6873
  endloop
endfacet
facet normal 0.415118 0.0378075 -0.908982
  outer loop
    vertex 6.85925 16.8216 -10.6732
    vertex 5.78735 13.7519 -11.2904
    vertex 3.57441 16.8216 -12.1733
  endloop
endfacet
facet normal 0.330612 -0.032953 -0.943191
  outer loop
    vertex 5.78735 13.7519 -11.2904
    vertex 2.63158 14.1745 -12.4113
    vertex 3.57441 16.8216 -12.1733
  endloop
endfacet
facet normal 0.654306 0.0411619 -0.755109
  outer loop
    vertex 9.58839 16.8216 -8.30839
    vertex 8.51832 13.7622 -9.40238
    vertex 6.85925 16.8216 -10.6732
  endloop
endfacet
facet normal 0.56844 -0.0332092 -0.822054
  outer loop
    vertex 8.51832 13.7622 -9.40238
    vertex 5.78735 13.7519 -11.2904
    vertex 6.85925 16.8216 -10.6732
  endloop
endfacet
facet normal 0.840526 0.0415929 -0.540173
  outer loop
    vertex 11.5407 16.8216 -5.27048
    vertex 10.7766 13.755 -6.69562
    vertex 9.58839 16.8216 -8.30839
  endloop
endfacet
facet normal 0.767202 -0.0394177 -0.640193
  outer loop
    vertex 9.58839 16.8216 -8.30839
    vertex 10.7766 13.755 -6.69562
    vertex 8.51832 13.7622 -9.40238
  endloop
endfacet
facet normal 0.958674 0.0412992 -0.281492
  outer loop
    vertex 12.5581 16.8216 -1.80559
    vertex 12.1733 13.6974 -3.57445
    vertex 11.5407 16.8216 -5.27048
  endloop
endfacet
facet normal 0.911883 -0.037261 -0.408754
  outer loop
    vertex 12.1733 13.6974 -3.57445
    vertex 10.7766 13.755 -6.69562
    vertex 11.5407 16.8216 -5.27048
  endloop
endfacet
facet normal 0.999146 0.0413078 9.82973e-016
  outer loop
    vertex 12.5581 16.8216 1.80559
    vertex 12.6873 13.698 -6.65436e-005
    vertex 12.5581 16.8216 -1.80559
  endloop
endfacet
facet normal 0.988977 -0.0413029 -0.14219
  outer loop
    vertex 12.6873 13.698 -6.65436e-005
    vertex 12.1733 13.6974 -3.57445
    vertex 12.5581 16.8216 -1.80559
  endloop
endfacet
facet normal 0.958673 0.0413282 0.281492
  outer loop
    vertex 11.5407 16.8216 5.27048
    vertex 12.1733 13.6996 3.57441
    vertex 12.5581 16.8216 1.80559
  endloop
endfacet
facet normal 0.988974 -0.0413195 0.142208
  outer loop
    vertex 12.5581 16.8216 1.80559
    vertex 12.1733 13.6996 3.57441
    vertex 12.6873 13.698 -6.65436e-005
  endloop
endfacet
facet normal 0.840525 0.0416128 0.540173
  outer loop
    vertex 9.58839 16.8216 8.30839
    vertex 10.7764 13.7563 6.6959
    vertex 11.5407 16.8216 5.27048
  endloop
endfacet
facet normal 0.911881 -0.0372904 0.408756
  outer loop
    vertex 11.5407 16.8216 5.27048
    vertex 10.7764 13.7563 6.6959
    vertex 12.1733 13.6996 3.57441
  endloop
endfacet
facet normal 0.654305 0.0411712 0.755109
  outer loop
    vertex 6.85925 16.8216 10.6732
    vertex 8.51797 13.7626 9.4027
    vertex 9.58839 16.8216 8.30839
  endloop
endfacet
facet normal 0.767188 -0.0394341 0.640209
  outer loop
    vertex 8.51797 13.7626 9.4027
    vertex 10.7764 13.7563 6.6959
    vertex 9.58839 16.8216 8.30839
  endloop
endfacet
facet normal 0.415118 0.0378082 0.908982
  outer loop
    vertex 3.57441 16.8216 12.1733
    vertex 5.78736 13.752 11.2904
    vertex 6.85925 16.8216 10.6732
  endloop
endfacet
facet normal 0.568429 -0.0332035 0.822062
  outer loop
    vertex 6.85925 16.8216 10.6732
    vertex 5.78736 13.752 11.2904
    vertex 8.51797 13.7626 9.4027
  endloop
endfacet
facet normal 0.330613 -0.0329535 0.943191
  outer loop
    vertex 3.57441 16.8216 12.1733
    vertex 2.63158 14.1745 12.4113
    vertex 5.78736 13.752 11.2904
  endloop
endfacet
facet normal 0.119904 -0 0.992785
  outer loop
    vertex 1.55374e-015 9.59235 12.6873
    vertex 3.02056 11.3732 12.3224
    vertex 1.55374e-015 13.207 12.6873
  endloop
endfacet
facet normal 0.110167 -0.0162362 0.99378
  outer loop
    vertex 3.02056 11.3732 12.3224
    vertex 2.63158 14.1745 12.4113
    vertex 1.55374e-015 13.207 12.6873
  endloop
endfacet
facet normal 0.119808 -0 0.992797
  outer loop
    vertex 1.55374e-015 5.97771 12.6873
    vertex 3.01818 7.81082 12.323
    vertex 1.55374e-015 9.59235 12.6873
  endloop
endfacet
facet normal 0.119856 8.23729e-005 0.992791
  outer loop
    vertex 1.55374e-015 9.59235 12.6873
    vertex 3.01818 7.81082 12.323
    vertex 3.02056 11.3732 12.3224
  endloop
endfacet
facet normal 0.11013 0.0161325 0.993786
  outer loop
    vertex 1.55374e-015 5.97771 12.6873
    vertex 2.63158 5.01017 12.4113
    vertex 3.01818 7.81082 12.323
  endloop
endfacet
facet normal 0.41511 -0.038306 -0.908964
  outer loop
    vertex 3.57441 2.36308 -12.1733
    vertex 5.76464 5.4222 -11.302
    vertex 6.85925 2.36308 -10.6732
  endloop
endfacet
facet normal 0.329774 0.0326272 -0.943496
  outer loop
    vertex 3.57441 2.36308 -12.1733
    vertex 2.63158 5.01017 -12.4113
    vertex 5.76464 5.4222 -11.302
  endloop
endfacet
facet normal 0.65429 -0.0417305 -0.755091
  outer loop
    vertex 6.85925 2.36308 -10.6732
    vertex 8.46444 5.41414 -9.45091
    vertex 9.58839 2.36308 -8.30839
  endloop
endfacet
facet normal 0.56525 0.0328268 -0.824267
  outer loop
    vertex 6.85925 2.36308 -10.6732
    vertex 5.76464 5.4222 -11.302
    vertex 8.46444 5.41414 -9.45091
  endloop
endfacet
facet normal 0.840536 -0.0412929 -0.54018
  outer loop
    vertex 9.58839 2.36308 -8.30839
    vertex 10.6732 5.48778 -6.85925
    vertex 11.5407 2.36308 -5.27048
  endloop
endfacet
facet normal 0.76005 0.0370286 -0.648809
  outer loop
    vertex 8.46444 5.41414 -9.45091
    vertex 10.6732 5.48778 -6.85925
    vertex 9.58839 2.36308 -8.30839
  endloop
endfacet
facet normal 0.958675 -0.0412929 -0.281492
  outer loop
    vertex 11.5407 2.36308 -5.27048
    vertex 12.1733 5.48778 -3.57441
    vertex 12.5581 2.36308 -1.80559
  endloop
endfacet
facet normal 0.908856 0.0412929 -0.415061
  outer loop
    vertex 11.5407 2.36308 -5.27048
    vertex 10.6732 5.48778 -6.85925
    vertex 12.1733 5.48778 -3.57441
  endloop
endfacet
facet normal 0.998306 -0.0581853 9.82146e-016
  outer loop
    vertex 12.5581 2.36308 -1.80559
    vertex 12.6873 4.57875 1.6126e-014
    vertex 12.5581 2.36308 1.80559
  endloop
endfacet
facet normal 0.990323 0.048303 -0.130103
  outer loop
    vertex 12.1733 5.48778 -3.57441
    vertex 12.6873 4.57875 1.6126e-014
    vertex 12.5581 2.36308 -1.80559
  endloop
endfacet
facet normal 0.958675 -0.0412929 0.281492
  outer loop
    vertex 12.5581 2.36308 1.80559
    vertex 12.1733 5.48778 3.57441
    vertex 11.5407 2.36308 5.27048
  endloop
endfacet
facet normal 0.990323 0.048303 0.130103
  outer loop
    vertex 12.5581 2.36308 1.80559
    vertex 12.6873 4.57875 1.6126e-014
    vertex 12.1733 5.48778 3.57441
  endloop
endfacet
facet normal 0.840536 -0.0412929 0.54018
  outer loop
    vertex 11.5407 2.36308 5.27048
    vertex 10.6732 5.48778 6.85925
    vertex 9.58839 2.36308 8.30839
  endloop
endfacet
facet normal 0.908856 0.0412929 0.415061
  outer loop
    vertex 12.1733 5.48778 3.57441
    vertex 10.6732 5.48778 6.85925
    vertex 11.5407 2.36308 5.27048
  endloop
endfacet
facet normal 0.65429 -0.0417401 0.755091
  outer loop
    vertex 9.58839 2.36308 8.30839
    vertex 8.46424 5.41355 9.45109
    vertex 6.85925 2.36308 10.6732
  endloop
endfacet
facet normal 0.760038 0.0370385 0.648822
  outer loop
    vertex 9.58839 2.36308 8.30839
    vertex 10.6732 5.48778 6.85925
    vertex 8.46424 5.41355 9.45109
  endloop
endfacet
facet normal 0.41511 -0.0383132 0.908964
  outer loop
    vertex 6.85925 2.36308 10.6732
    vertex 5.76448 5.42182 11.3021
    vertex 3.57441 2.36308 12.1733
  endloop
endfacet
facet normal 0.565237 0.032832 0.824275
  outer loop
    vertex 8.46424 5.41355 9.45109
    vertex 5.76448 5.42182 11.3021
    vertex 6.85925 2.36308 10.6732
  endloop
endfacet
facet normal 0.329771 0.0326261 0.943497
  outer loop
    vertex 5.76448 5.42182 11.3021
    vertex 2.63158 5.01017 12.4113
    vertex 3.57441 2.36308 12.1733
  endloop
endfacet
facet normal 0.119808 0 -0.992797
  outer loop
    vertex 0 13.207 -12.6873
    vertex 3.01818 11.3739 -12.323
    vertex 0 9.59235 -12.6873
  endloop
endfacet
facet normal 0.11013 -0.0161325 -0.993786
  outer loop
    vertex 0 13.207 -12.6873
    vertex 2.63158 14.1745 -12.4113
    vertex 3.01818 11.3739 -12.323
  endloop
endfacet
facet normal 0.119904 0 -0.992785
  outer loop
    vertex 0 9.59235 -12.6873
    vertex 3.02056 7.81152 -12.3224
    vertex 0 5.97771 -12.6873
  endloop
endfacet
facet normal 0.119856 -8.23729e-005 -0.992791
  outer loop
    vertex 0 9.59235 -12.6873
    vertex 3.01818 11.3739 -12.323
    vertex 3.02056 7.81152 -12.3224
  endloop
endfacet
facet normal 0.110167 0.0162362 -0.99378
  outer loop
    vertex 3.02056 7.81152 -12.3224
    vertex 2.63158 5.01017 -12.4113
    vertex 0 5.97771 -12.6873
  endloop
endfacet
facet normal 0.767119 0.0445849 0.639954
  outer loop
    vertex 8.51797 13.7626 9.4027
    vertex 10.0532 11.2208 7.73952
    vertex 10.7764 13.7563 6.6959
  endloop
endfacet
facet normal 0.568544 0.0156184 0.822504
  outer loop
    vertex 5.78736 13.752 11.2904
    vertex 8.21446 10.788 9.66898
    vertex 8.51797 13.7626 9.4027
  endloop
endfacet
facet normal 0.725255 -0.0123782 0.688369
  outer loop
    vertex 8.21446 10.788 9.66898
    vertex 10.0532 11.2208 7.73952
    vertex 8.51797 13.7626 9.4027
  endloop
endfacet
facet normal 0.767153 0.0443966 -0.639926
  outer loop
    vertex 10.7766 13.755 -6.69562
    vertex 10.0566 11.2137 -7.73512
    vertex 8.51832 13.7622 -9.40238
  endloop
endfacet
facet normal 0.56856 0.0156389 -0.822493
  outer loop
    vertex 8.51832 13.7622 -9.40238
    vertex 8.21446 10.788 -9.66898
    vertex 5.78735 13.7519 -11.2904
  endloop
endfacet
facet normal 0.725384 -0.0124175 -0.688232
  outer loop
    vertex 8.51832 13.7622 -9.40238
    vertex 10.0566 11.2137 -7.73512
    vertex 8.21446 10.788 -9.66898
  endloop
endfacet
facet normal 0.989821 5.86966e-015 -0.142315
  outer loop
    vertex 12.6873 7.44751 1.34446e-013
    vertex 12.6873 4.57875 1.6126e-014
    vertex 12.1733 5.48778 -3.57441
  endloop
endfacet
facet normal 0.992093 -0.0510241 -0.114667
  outer loop
    vertex 12.1733 5.48778 -3.57441
    vertex 12.4123 8.00471 -2.62724
    vertex 12.6873 7.44751 1.34446e-013
  endloop
endfacet
facet normal 0.908091 -0.0581853 -0.414711
  outer loop
    vertex 10.6732 5.48778 -6.85925
    vertex 11.5407 7.70345 -5.27048
    vertex 12.1733 5.48778 -3.57441
  endloop
endfacet
facet normal 0.948328 0.0288861 -0.315973
  outer loop
    vertex 11.5407 7.70345 -5.27048
    vertex 12.4123 8.00471 -2.62724
    vertex 12.1733 5.48778 -3.57441
  endloop
endfacet
facet normal 0.989821 -5.87284e-015 0.142315
  outer loop
    vertex 12.1733 5.48778 3.57441
    vertex 12.6873 4.57875 1.6126e-014
    vertex 12.6873 7.44751 1.34446e-013
  endloop
endfacet
facet normal 0.992096 -0.0512949 0.114519
  outer loop
    vertex 12.6873 7.44751 1.34446e-013
    vertex 12.4128 7.99932 2.62447
    vertex 12.1733 5.48778 3.57441
  endloop
endfacet
facet normal 0.908093 -0.0581507 0.414712
  outer loop
    vertex 12.1733 5.48778 3.57441
    vertex 11.5407 7.70477 5.27048
    vertex 10.6732 5.48778 6.85925
  endloop
endfacet
facet normal 0.948379 0.0290087 0.315809
  outer loop
    vertex 12.1733 5.48778 3.57441
    vertex 12.4128 7.99932 2.62447
    vertex 11.5407 7.70477 5.27048
  endloop
endfacet
facet normal 0.98896 0.0416663 -0.142203
  outer loop
    vertex 12.6873 13.698 -6.65436e-005
    vertex 12.5638 10.6027 -1.76536
    vertex 12.1733 13.6974 -3.57445
  endloop
endfacet
facet normal 0.999178 -0.0405137 0.00118162
  outer loop
    vertex 12.6873 13.698 -6.65436e-005
    vertex 12.5602 10.6166 1.79109
    vertex 12.5638 10.6027 -1.76536
  endloop
endfacet
facet normal 0.988957 0.0418595 0.14217
  outer loop
    vertex 12.6873 13.698 -6.65436e-005
    vertex 12.1733 13.6996 3.57441
    vertex 12.5602 10.6166 1.79109
  endloop
endfacet
facet normal 0.761093 -0.0365131 0.647614
  outer loop
    vertex 10.6732 5.48778 6.85925
    vertex 9.90185 8.43991 7.9322
    vertex 8.46424 5.41355 9.45109
  endloop
endfacet
facet normal 0.706106 0.0198281 0.707828
  outer loop
    vertex 9.90185 8.43991 7.9322
    vertex 7.96434 8.04647 9.87602
    vertex 8.46424 5.41355 9.45109
  endloop
endfacet
facet normal 0.565232 -0.0257535 0.82453
  outer loop
    vertex 8.46424 5.41355 9.45109
    vertex 7.96434 8.04647 9.87602
    vertex 5.76448 5.42182 11.3021
  endloop
endfacet
facet normal 0.761094 -0.0366354 -0.647606
  outer loop
    vertex 8.46444 5.41414 -9.45091
    vertex 9.89248 8.44166 -7.94389
    vertex 10.6732 5.48778 -6.85925
  endloop
endfacet
facet normal 0.706047 0.0193426 -0.7079
  outer loop
    vertex 8.46444 5.41414 -9.45091
    vertex 7.97118 8.06316 -9.8705
    vertex 9.89248 8.44166 -7.94389
  endloop
endfacet
facet normal 0.565255 -0.0253469 -0.824527
  outer loop
    vertex 5.76464 5.4222 -11.302
    vertex 7.97118 8.06316 -9.8705
    vertex 8.46444 5.41414 -9.45091
  endloop
endfacet
facet normal 0.341779 7.44349e-005 -0.93978
  outer loop
    vertex 3.01818 11.3739 -12.323
    vertex 5.60211 9.62081 -11.3834
    vertex 3.02056 7.81152 -12.3224
  endloop
endfacet
facet normal 0.344826 -0.00485782 -0.938654
  outer loop
    vertex 5.60211 9.62081 -11.3834
    vertex 5.76464 5.4222 -11.302
    vertex 3.02056 7.81152 -12.3224
  endloop
endfacet
facet normal 0.335674 -0.0167247 -0.94183
  outer loop
    vertex 5.76464 5.4222 -11.302
    vertex 2.63158 5.01017 -12.4113
    vertex 3.02056 7.81152 -12.3224
  endloop
endfacet
facet normal 0.341598 -7.43034e-005 0.939846
  outer loop
    vertex 3.01818 7.81082 12.323
    vertex 5.59769 9.61964 11.3856
    vertex 3.02056 11.3732 12.3224
  endloop
endfacet
facet normal 0.345114 0.00578807 0.938543
  outer loop
    vertex 5.59769 9.61964 11.3856
    vertex 5.78736 13.752 11.2904
    vertex 3.02056 11.3732 12.3224
  endloop
endfacet
facet normal 0.336673 0.0168748 0.94147
  outer loop
    vertex 5.78736 13.752 11.2904
    vertex 2.63158 14.1745 12.4113
    vertex 3.02056 11.3732 12.3224
  endloop
endfacet
facet normal 0.344634 -0.0049858 0.938724
  outer loop
    vertex 3.01818 7.81082 12.323
    vertex 5.76448 5.42182 11.3021
    vertex 5.59769 9.61964 11.3856
  endloop
endfacet
facet normal 0.335657 -0.0166371 0.941837
  outer loop
    vertex 3.01818 7.81082 12.323
    vertex 2.63158 5.01017 12.4113
    vertex 5.76448 5.42182 11.3021
  endloop
endfacet
facet normal 0.539992 0.00470761 0.841657
  outer loop
    vertex 5.76448 5.42182 11.3021
    vertex 7.96434 8.04647 9.87602
    vertex 5.59769 9.61964 11.3856
  endloop
endfacet
facet normal 0.550388 -0.00602247 0.834887
  outer loop
    vertex 5.59769 9.61964 11.3856
    vertex 8.21446 10.788 9.66898
    vertex 5.78736 13.752 11.2904
  endloop
endfacet
facet normal 0.544184 0.013703 0.838854
  outer loop
    vertex 5.59769 9.61964 11.3856
    vertex 7.96434 8.04647 9.87602
    vertex 8.21446 10.788 9.66898
  endloop
endfacet
facet normal 0.345121 0.00566431 -0.938541
  outer loop
    vertex 3.01818 11.3739 -12.323
    vertex 5.78735 13.7519 -11.2904
    vertex 5.60211 9.62081 -11.3834
  endloop
endfacet
facet normal 0.336663 0.0167874 -0.941475
  outer loop
    vertex 3.01818 11.3739 -12.323
    vertex 2.63158 14.1745 -12.4113
    vertex 5.78735 13.7519 -11.2904
  endloop
endfacet
facet normal 0.550508 -0.00588154 -0.834809
  outer loop
    vertex 5.78735 13.7519 -11.2904
    vertex 8.21446 10.788 -9.66898
    vertex 5.60211 9.62081 -11.3834
  endloop
endfacet
facet normal 0.540371 0.00459761 -0.841415
  outer loop
    vertex 5.60211 9.62081 -11.3834
    vertex 7.97118 8.06316 -9.8705
    vertex 5.76464 5.4222 -11.302
  endloop
endfacet
facet normal 0.544435 0.0134197 -0.838696
  outer loop
    vertex 8.21446 10.788 -9.66898
    vertex 7.97118 8.06316 -9.8705
    vertex 5.60211 9.62081 -11.3834
  endloop
endfacet
facet normal 0.959178 -0.0424133 -0.279604
  outer loop
    vertex 12.5638 10.6027 -1.76536
    vertex 11.5407 10.5722 -5.27048
    vertex 12.1733 13.6974 -3.57445
  endloop
endfacet
facet normal 0.912415 0.0365325 -0.407631
  outer loop
    vertex 11.5407 10.5722 -5.27048
    vertex 10.7766 13.755 -6.69562
    vertex 12.1733 13.6974 -3.57445
  endloop
endfacet
facet normal 0.959198 0.0370248 -0.2803
  outer loop
    vertex 12.5638 10.6027 -1.76536
    vertex 12.4123 8.00471 -2.62724
    vertex 11.5407 10.5722 -5.27048
  endloop
endfacet
facet normal 0.999216 0.0395724 0.000869016
  outer loop
    vertex 12.5602 10.6166 1.79109
    vertex 12.6873 7.44751 1.34446e-013
    vertex 12.5638 10.6027 -1.76536
  endloop
endfacet
facet normal 0.993835 -0.0219317 -0.108679
  outer loop
    vertex 12.6873 7.44751 1.34446e-013
    vertex 12.4123 8.00471 -2.62724
    vertex 12.5638 10.6027 -1.76536
  endloop
endfacet
facet normal 0.853016 -0.028538 -0.521103
  outer loop
    vertex 11.5407 10.5722 -5.27048
    vertex 10.0566 11.2137 -7.73512
    vertex 10.7766 13.755 -6.69562
  endloop
endfacet
facet normal 0.85122 4.0818e-016 -0.524809
  outer loop
    vertex 11.5407 10.5722 -5.27048
    vertex 11.5407 7.70345 -5.27048
    vertex 9.89248 8.44166 -7.94389
  endloop
endfacet
facet normal 0.855269 -0.0116092 -0.518053
  outer loop
    vertex 9.89248 8.44166 -7.94389
    vertex 10.0566 11.2137 -7.73512
    vertex 11.5407 10.5722 -5.27048
  endloop
endfacet
facet normal 0.949709 -3.03602e-016 -0.313135
  outer loop
    vertex 11.5407 10.5722 -5.27048
    vertex 12.4123 8.00471 -2.62724
    vertex 11.5407 7.70345 -5.27048
  endloop
endfacet
facet normal 0.993874 -0.0214309 0.108425
  outer loop
    vertex 12.5602 10.6166 1.79109
    vertex 12.4128 7.99932 2.62447
    vertex 12.6873 7.44751 1.34446e-013
  endloop
endfacet
facet normal 0.958942 -0.0419145 0.280488
  outer loop
    vertex 12.1733 13.6996 3.57441
    vertex 11.5405 10.5746 5.27101
    vertex 12.5602 10.6166 1.79109
  endloop
endfacet
facet normal 0.958924 0.0356207 0.281419
  outer loop
    vertex 11.5405 10.5746 5.27101
    vertex 12.4128 7.99932 2.62447
    vertex 12.5602 10.6166 1.79109
  endloop
endfacet
facet normal 0.912407 0.036546 0.40765
  outer loop
    vertex 12.1733 13.6996 3.57441
    vertex 10.7764 13.7563 6.6959
    vertex 11.5405 10.5746 5.27101
  endloop
endfacet
facet normal 0.852852 -0.0286809 0.521365
  outer loop
    vertex 10.7764 13.7563 6.6959
    vertex 10.0532 11.2208 7.73952
    vertex 11.5405 10.5746 5.27101
  endloop
endfacet
facet normal 0.851527 -2.50171e-005 0.524311
  outer loop
    vertex 9.90185 8.43991 7.9322
    vertex 11.5407 7.70477 5.27048
    vertex 11.5405 10.5746 5.27101
  endloop
endfacet
facet normal 0.855258 -0.0106419 0.518093
  outer loop
    vertex 11.5405 10.5746 5.27101
    vertex 10.0532 11.2208 7.73952
    vertex 9.90185 8.43991 7.9322
  endloop
endfacet
facet normal 0.949743 2.23049e-005 0.313031
  outer loop
    vertex 11.5407 7.70477 5.27048
    vertex 12.4128 7.99932 2.62447
    vertex 11.5405 10.5746 5.27101
  endloop
endfacet
facet normal 0.855355 0.0356557 0.516814
  outer loop
    vertex 10.6732 5.48778 6.85925
    vertex 11.5407 7.70477 5.27048
    vertex 9.90185 8.43991 7.9322
  endloop
endfacet
facet normal 0.722943 0.00852883 0.690855
  outer loop
    vertex 9.90185 8.43991 7.9322
    vertex 10.0532 11.2208 7.73952
    vertex 8.21446 10.788 9.66898
  endloop
endfacet
facet normal 0.70937 -0.011496 0.704742
  outer loop
    vertex 8.21446 10.788 9.66898
    vertex 7.96434 8.04647 9.87602
    vertex 9.90185 8.43991 7.9322
  endloop
endfacet
facet normal 0.855086 0.0360804 -0.517229
  outer loop
    vertex 9.89248 8.44166 -7.94389
    vertex 11.5407 7.70345 -5.27048
    vertex 10.6732 5.48778 -6.85925
  endloop
endfacet
facet normal 0.72303 0.00922474 -0.690755
  outer loop
    vertex 8.21446 10.788 -9.66898
    vertex 10.0566 11.2137 -7.73512
    vertex 9.89248 8.44166 -7.94389
  endloop
endfacet
facet normal 0.709135 -0.0111746 -0.704984
  outer loop
    vertex 9.89248 8.44166 -7.94389
    vertex 7.97118 8.06316 -9.8705
    vertex 8.21446 10.788 -9.66898
  endloop
endfacet
facet normal 0 1 0
  outer loop
    vertex 0 16.8216 -12.6873
    vertex 1.41816 16.8216 -9.91668
    vertex 3.57441 16.8216 -12.1733
  endloop
endfacet
facet normal -0 1 0
  outer loop
    vertex -3.57441 16.8216 -12.1733
    vertex -1.46045 16.8216 -10.1577
    vertex 0 16.8216 -12.6873
  endloop
endfacet
facet normal 0 1 -0
  outer loop
    vertex 0 16.8216 -12.6873
    vertex -1.46045 16.8216 -10.1577
    vertex 1.41816 16.8216 -9.91668
  endloop
endfacet
facet normal 0 1 0
  outer loop
    vertex 3.57441 16.8216 12.1733
    vertex 1.21488 16.8216 10.3006
    vertex 1.55374e-015 16.8216 12.6873
  endloop
endfacet
facet normal 0 1 0
  outer loop
    vertex 1.55374e-015 16.8216 12.6873
    vertex -1.40653 16.8216 10.3687
    vertex -3.57441 16.8216 12.1733
  endloop
endfacet
facet normal 0 1 0
  outer loop
    vertex 1.55374e-015 16.8216 12.6873
    vertex 1.21488 16.8216 10.3006
    vertex -1.40653 16.8216 10.3687
  endloop
endfacet
facet normal 0 1 0
  outer loop
    vertex 3.57441 16.8216 -12.1733
    vertex 4.1207 16.8216 -9.52446
    vertex 6.85925 16.8216 -10.6732
  endloop
endfacet
facet normal -0 1 0
  outer loop
    vertex 1.41816 16.8216 -9.91668
    vertex 4.1207 16.8216 -9.52446
    vertex 3.57441 16.8216 -12.1733
  endloop
endfacet
facet normal 0 1 -0
  outer loop
    vertex 6.85925 16.8216 -10.6732
    vertex 5.89942 16.8216 -7.57591
    vertex 9.58839 16.8216 -8.30839
  endloop
endfacet
facet normal 0 1 0
  outer loop
    vertex 6.85925 16.8216 -10.6732
    vertex 4.1207 16.8216 -9.52446
    vertex 5.89942 16.8216 -7.57591
  endloop
endfacet
facet normal 0 1 -0
  outer loop
    vertex 9.58839 16.8216 -8.30839
    vertex 7.93366 16.8216 -5.09865
    vertex 11.5407 16.8216 -5.27048
  endloop
endfacet
facet normal 0 1 0
  outer loop
    vertex 9.58839 16.8216 -8.30839
    vertex 5.89942 16.8216 -7.57591
    vertex 7.93366 16.8216 -5.09865
  endloop
endfacet
facet normal 0 1 -0
  outer loop
    vertex 11.5407 16.8216 -5.27048
    vertex 9.76225 16.8216 -2.65104
    vertex 12.5581 16.8216 -1.80559
  endloop
endfacet
facet normal -0 1 0
  outer loop
    vertex 7.93366 16.8216 -5.09865
    vertex 9.76225 16.8216 -2.65104
    vertex 11.5407 16.8216 -5.27048
  endloop
endfacet
facet normal 0 1 0
  outer loop
    vertex 12.5581 16.8216 -1.80559
    vertex 9.52471 16.8216 0.0499294
    vertex 12.5581 16.8216 1.80559
  endloop
endfacet
facet normal 0 1 -0
  outer loop
    vertex 9.76225 16.8216 -2.65104
    vertex 9.52471 16.8216 0.0499294
    vertex 12.5581 16.8216 -1.80559
  endloop
endfacet
facet normal 0 1 0
  outer loop
    vertex 12.5581 16.8216 1.80559
    vertex 9.07403 16.8216 2.81108
    vertex 11.5407 16.8216 5.27048
  endloop
endfacet
facet normal 0 1 0
  outer loop
    vertex 12.5581 16.8216 1.80559
    vertex 9.52471 16.8216 0.0499294
    vertex 9.07403 16.8216 2.81108
  endloop
endfacet
facet normal 0 1 0
  outer loop
    vertex 11.5407 16.8216 5.27048
    vertex 8.55002 16.8216 5.70269
    vertex 9.58839 16.8216 8.30839
  endloop
endfacet
facet normal 0 1 -0
  outer loop
    vertex 9.07403 16.8216 2.81108
    vertex 8.55002 16.8216 5.70269
    vertex 11.5407 16.8216 5.27048
  endloop
endfacet
facet normal 0 1 0
  outer loop
    vertex 9.58839 16.8216 8.30839
    vertex 6.79205 16.8216 7.55063
    vertex 6.85925 16.8216 10.6732
  endloop
endfacet
facet normal 0 1 0
  outer loop
    vertex 9.58839 16.8216 8.30839
    vertex 8.55002 16.8216 5.70269
    vertex 6.79205 16.8216 7.55063
  endloop
endfacet
facet normal 0 1 0
  outer loop
    vertex 6.85925 16.8216 10.6732
    vertex 3.77311 16.8216 8.4574
    vertex 3.57441 16.8216 12.1733
  endloop
endfacet
facet normal 0 1 0
  outer loop
    vertex 6.85925 16.8216 10.6732
    vertex 6.79205 16.8216 7.55063
    vertex 3.77311 16.8216 8.4574
  endloop
endfacet
facet normal 0 1 0
  outer loop
    vertex 3.77311 16.8216 8.4574
    vertex 1.21488 16.8216 10.3006
    vertex 3.57441 16.8216 12.1733
  endloop
endfacet
facet normal 0 1 0
  outer loop
    vertex -3.57441 16.8216 12.1733
    vertex -3.80081 16.8216 9.00275
    vertex -6.85925 16.8216 10.6732
  endloop
endfacet
facet normal 0 1 0
  outer loop
    vertex -3.57441 16.8216 12.1733
    vertex -1.40653 16.8216 10.3687
    vertex -3.80081 16.8216 9.00275
  endloop
endfacet
facet normal 0 1 0
  outer loop
    vertex -6.85925 16.8216 10.6732
    vertex -6.43606 16.8216 7.89787
    vertex -9.58839 16.8216 8.30839
  endloop
endfacet
facet normal 0 1 0
  outer loop
    vertex -3.80081 16.8216 9.00275
    vertex -6.43606 16.8216 7.89787
    vertex -6.85925 16.8216 10.6732
  endloop
endfacet
facet normal 0 1 0
  outer loop
    vertex -9.58839 16.8216 8.30839
    vertex -7.72488 16.8216 5.52566
    vertex -11.5407 16.8216 5.27048
  endloop
endfacet
facet normal 0 1 0
  outer loop
    vertex -9.58839 16.8216 8.30839
    vertex -6.43606 16.8216 7.89787
    vertex -7.72488 16.8216 5.52566
  endloop
endfacet
facet normal 0 1 0
  outer loop
    vertex -11.5407 16.8216 5.27048
    vertex -9.04874 16.8216 2.65695
    vertex -12.5581 16.8216 1.80559
  endloop
endfacet
facet normal -0 1 0
  outer loop
    vertex -11.5407 16.8216 5.27048
    vertex -7.72488 16.8216 5.52566
    vertex -9.04874 16.8216 2.65695
  endloop
endfacet
facet normal 0 1 0
  outer loop
    vertex -12.5581 16.8216 1.80559
    vertex -10.1309 16.8216 -0.00299193
    vertex -12.5581 16.8216 -1.80559
  endloop
endfacet
facet normal 0 1 0
  outer loop
    vertex -9.04874 16.8216 2.65695
    vertex -10.1309 16.8216 -0.00299193
    vertex -12.5581 16.8216 1.80559
  endloop
endfacet
facet normal 0 1 0
  outer loop
    vertex -12.5581 16.8216 -1.80559
    vertex -9.04874 16.8216 -2.65695
    vertex -11.5407 16.8216 -5.27048
  endloop
endfacet
facet normal -0 1 0
  outer loop
    vertex -12.5581 16.8216 -1.80559
    vertex -10.1309 16.8216 -0.00299193
    vertex -9.04874 16.8216 -2.65695
  endloop
endfacet
facet normal 0 1 0
  outer loop
    vertex -11.5407 16.8216 -5.27048
    vertex -7.89487 16.8216 -5.59376
    vertex -9.58839 16.8216 -8.30839
  endloop
endfacet
facet normal 0 1 0
  outer loop
    vertex -9.04874 16.8216 -2.65695
    vertex -7.89487 16.8216 -5.59376
    vertex -11.5407 16.8216 -5.27048
  endloop
endfacet
facet normal -0 1 0
  outer loop
    vertex -9.58839 16.8216 -8.30839
    vertex -6.71968 16.8216 -7.91628
    vertex -6.85925 16.8216 -10.6732
  endloop
endfacet
facet normal 0 1 0
  outer loop
    vertex -7.89487 16.8216 -5.59376
    vertex -6.71968 16.8216 -7.91628
    vertex -9.58839 16.8216 -8.30839
  endloop
endfacet
facet normal -0 1 0
  outer loop
    vertex -6.85925 16.8216 -10.6732
    vertex -3.84099 16.8216 -8.61518
    vertex -3.57441 16.8216 -12.1733
  endloop
endfacet
facet normal 0 1 0
  outer loop
    vertex -6.85925 16.8216 -10.6732
    vertex -6.71968 16.8216 -7.91628
    vertex -3.84099 16.8216 -8.61518
  endloop
endfacet
facet normal 0 1 0
  outer loop
    vertex -3.84099 16.8216 -8.61518
    vertex -1.46045 16.8216 -10.1577
    vertex -3.57441 16.8216 -12.1733
  endloop
endfacet
facet normal 0 1 0
  outer loop
    vertex 3.77311 16.8216 8.4574
    vertex 5.75492 16.8216 4.57287
    vertex 1.7312 16.8216 4.57177
  endloop
endfacet
facet normal 0 1 -0
  outer loop
    vertex 1.7312 16.8216 4.57177
    vertex -0.423261 16.8216 7.64647
    vertex 3.77311 16.8216 8.4574
  endloop
endfacet
facet normal 0 1 0
  outer loop
    vertex 3.77311 16.8216 8.4574
    vertex 6.79205 16.8216 7.55063
    vertex 5.75492 16.8216 4.57287
  endloop
endfacet
facet normal 0 1 0
  outer loop
    vertex -0.423261 16.8216 7.64647
    vertex 1.21488 16.8216 10.3006
    vertex 3.77311 16.8216 8.4574
  endloop
endfacet
facet normal 0 1 -0
  outer loop
    vertex -3.84099 16.8216 -8.61518
    vertex -5.15058 16.8216 -6.11565
    vertex -2.45777 16.8216 -5.44369
  endloop
endfacet
facet normal 0 1 0
  outer loop
    vertex -2.45777 16.8216 -5.44369
    vertex -0.662756 16.8216 -7.69056
    vertex -3.84099 16.8216 -8.61518
  endloop
endfacet
facet normal -0 1 0
  outer loop
    vertex -3.84099 16.8216 -8.61518
    vertex -0.662756 16.8216 -7.69056
    vertex -1.46045 16.8216 -10.1577
  endloop
endfacet
facet normal 0 1 0
  outer loop
    vertex -3.84099 16.8216 -8.61518
    vertex -6.71968 16.8216 -7.91628
    vertex -5.15058 16.8216 -6.11565
  endloop
endfacet
facet normal 0 1 0
  outer loop
    vertex 7.93366 16.8216 -5.09865
    vertex 4.44815 16.8216 -4.62696
    vertex 6.43599 16.8216 -1.4127
  endloop
endfacet
facet normal 0 1 0
  outer loop
    vertex 6.43599 16.8216 -1.4127
    vertex 9.76225 16.8216 -2.65104
    vertex 7.93366 16.8216 -5.09865
  endloop
endfacet
facet normal 0 1 0
  outer loop
    vertex 7.93366 16.8216 -5.09865
    vertex 5.89942 16.8216 -7.57591
    vertex 4.44815 16.8216 -4.62696
  endloop
endfacet
facet normal 0 1 0
  outer loop
    vertex -9.04874 16.8216 2.65695
    vertex -7.09222 16.8216 0.0773871
    vertex -10.1309 16.8216 -0.00299193
  endloop
endfacet
facet normal -0 1 0
  outer loop
    vertex -9.04874 16.8216 2.65695
    vertex -5.5354 16.8216 3.15418
    vertex -7.09222 16.8216 0.0773871
  endloop
endfacet
facet normal 0 1 0
  outer loop
    vertex -9.04874 16.8216 2.65695
    vertex -7.72488 16.8216 5.52566
    vertex -5.5354 16.8216 3.15418
  endloop
endfacet
facet normal 0 1 0
  outer loop
    vertex -0.423261 16.8216 7.64647
    vertex -4.20697 16.8216 5.97934
    vertex -3.80081 16.8216 9.00275
  endloop
endfacet
facet normal -0 1 0
  outer loop
    vertex -3.80081 16.8216 9.00275
    vertex -1.40653 16.8216 10.3687
    vertex -0.423261 16.8216 7.64647
  endloop
endfacet
facet normal 0 1 -0
  outer loop
    vertex -4.20697 16.8216 5.97934
    vertex -6.43606 16.8216 7.89787
    vertex -3.80081 16.8216 9.00275
  endloop
endfacet
facet normal -0 1 0
  outer loop
    vertex 5.75492 16.8216 4.57287
    vertex 8.55002 16.8216 5.70269
    vertex 9.07403 16.8216 2.81108
  endloop
endfacet
facet normal 0 1 0
  outer loop
    vertex 9.07403 16.8216 2.81108
    vertex 6.75975 16.8216 1.55223
    vertex 5.75492 16.8216 4.57287
  endloop
endfacet
facet normal 0 1 0
  outer loop
    vertex 9.07403 16.8216 2.81108
    vertex 9.52471 16.8216 0.0499294
    vertex 6.75975 16.8216 1.55223
  endloop
endfacet
facet normal 0 1 0
  outer loop
    vertex -1.46045 16.8216 -10.1577
    vertex -0.662756 16.8216 -7.69056
    vertex 1.41816 16.8216 -9.91668
  endloop
endfacet
facet normal 0 1 0
  outer loop
    vertex 2.85224 16.8216 -7.28319
    vertex 4.1207 16.8216 -9.52446
    vertex 1.41816 16.8216 -9.91668
  endloop
endfacet
facet normal 0 1 -0
  outer loop
    vertex 1.41816 16.8216 -9.91668
    vertex -0.662756 16.8216 -7.69056
    vertex 2.85224 16.8216 -7.28319
  endloop
endfacet
facet normal -0 1 0
  outer loop
    vertex -10.1309 16.8216 -0.00299193
    vertex -7.09222 16.8216 0.0773871
    vertex -9.04874 16.8216 -2.65695
  endloop
endfacet
facet normal 0 1 0
  outer loop
    vertex -7.09222 16.8216 0.0773871
    vertex -5.22537 16.8216 -3.17882
    vertex -9.04874 16.8216 -2.65695
  endloop
endfacet
facet normal 0 1 0
  outer loop
    vertex -5.22537 16.8216 -3.17882
    vertex -7.89487 16.8216 -5.59376
    vertex -9.04874 16.8216 -2.65695
  endloop
endfacet
facet normal 0 1 0
  outer loop
    vertex -5.5354 16.8216 3.15418
    vertex -3.46586 16.8216 0.42903
    vertex -7.09222 16.8216 0.0773871
  endloop
endfacet
facet normal 0 1 0
  outer loop
    vertex -3.46586 16.8216 0.42903
    vertex -5.22537 16.8216 -3.17882
    vertex -7.09222 16.8216 0.0773871
  endloop
endfacet
facet normal -0 1 0
  outer loop
    vertex -5.5354 16.8216 3.15418
    vertex -1.85759 16.8216 3.82786
    vertex -3.46586 16.8216 0.42903
  endloop
endfacet
facet normal 0 1 0
  outer loop
    vertex -5.5354 16.8216 3.15418
    vertex -4.20697 16.8216 5.97934
    vertex -1.85759 16.8216 3.82786
  endloop
endfacet
facet normal -0 1 0
  outer loop
    vertex -7.72488 16.8216 5.52566
    vertex -4.20697 16.8216 5.97934
    vertex -5.5354 16.8216 3.15418
  endloop
endfacet
facet normal 0 1 0
  outer loop
    vertex -1.85759 16.8216 3.82786
    vertex 0.297249 16.8216 1.06916
    vertex -3.46586 16.8216 0.42903
  endloop
endfacet
facet normal 0 1 0
  outer loop
    vertex 0.297249 16.8216 1.06916
    vertex -0.96993 16.8216 -2.27827
    vertex -3.46586 16.8216 0.42903
  endloop
endfacet
facet normal 0 1 0
  outer loop
    vertex -0.96993 16.8216 -2.27827
    vertex -5.22537 16.8216 -3.17882
    vertex -3.46586 16.8216 0.42903
  endloop
endfacet
facet normal -0 1 0
  outer loop
    vertex -1.85759 16.8216 3.82786
    vertex 1.7312 16.8216 4.57177
    vertex 0.297249 16.8216 1.06916
  endloop
endfacet
facet normal 0 1 0
  outer loop
    vertex -1.85759 16.8216 3.82786
    vertex -0.423261 16.8216 7.64647
    vertex 1.7312 16.8216 4.57177
  endloop
endfacet
facet normal 0 1 -0
  outer loop
    vertex -1.85759 16.8216 3.82786
    vertex -4.20697 16.8216 5.97934
    vertex -0.423261 16.8216 7.64647
  endloop
endfacet
facet normal 0 1 0
  outer loop
    vertex 0.297249 16.8216 1.06916
    vertex 2.55037 16.8216 -1.6931
    vertex -0.96993 16.8216 -2.27827
  endloop
endfacet
facet normal -0 1 0
  outer loop
    vertex 0.297249 16.8216 1.06916
    vertex 3.72638 16.8216 1.55048
    vertex 2.55037 16.8216 -1.6931
  endloop
endfacet
facet normal 0 1 0
  outer loop
    vertex 0.297249 16.8216 1.06916
    vertex 1.7312 16.8216 4.57177
    vertex 3.72638 16.8216 1.55048
  endloop
endfacet
facet normal 0 1 0
  outer loop
    vertex 2.55037 16.8216 -1.6931
    vertex 1.06655 16.8216 -4.80529
    vertex -0.96993 16.8216 -2.27827
  endloop
endfacet
facet normal 0 1 0
  outer loop
    vertex -0.96993 16.8216 -2.27827
    vertex -2.45777 16.8216 -5.44369
    vertex -5.22537 16.8216 -3.17882
  endloop
endfacet
facet normal 0 1 0
  outer loop
    vertex 1.06655 16.8216 -4.80529
    vertex -2.45777 16.8216 -5.44369
    vertex -0.96993 16.8216 -2.27827
  endloop
endfacet
facet normal 0 1 0
  outer loop
    vertex 3.72638 16.8216 1.55048
    vertex 6.43599 16.8216 -1.4127
    vertex 2.55037 16.8216 -1.6931
  endloop
endfacet
facet normal 0 1 0
  outer loop
    vertex 6.43599 16.8216 -1.4127
    vertex 4.44815 16.8216 -4.62696
    vertex 2.55037 16.8216 -1.6931
  endloop
endfacet
facet normal 0 1 0
  outer loop
    vertex 2.55037 16.8216 -1.6931
    vertex 4.44815 16.8216 -4.62696
    vertex 1.06655 16.8216 -4.80529
  endloop
endfacet
facet normal -0 1 0
  outer loop
    vertex 3.72638 16.8216 1.55048
    vertex 6.75975 16.8216 1.55223
    vertex 6.43599 16.8216 -1.4127
  endloop
endfacet
facet normal -0 1 0
  outer loop
    vertex 1.7312 16.8216 4.57177
    vertex 5.75492 16.8216 4.57287
    vertex 3.72638 16.8216 1.55048
  endloop
endfacet
facet normal 0 1 0
  outer loop
    vertex 5.75492 16.8216 4.57287
    vertex 6.75975 16.8216 1.55223
    vertex 3.72638 16.8216 1.55048
  endloop
endfacet
facet normal 0 1 0
  outer loop
    vertex -2.45777 16.8216 -5.44369
    vertex -5.15058 16.8216 -6.11565
    vertex -5.22537 16.8216 -3.17882
  endloop
endfacet
facet normal 0 1 0
  outer loop
    vertex -5.22537 16.8216 -3.17882
    vertex -5.15058 16.8216 -6.11565
    vertex -7.89487 16.8216 -5.59376
  endloop
endfacet
facet normal -0 1 0
  outer loop
    vertex 6.43599 16.8216 -1.4127
    vertex 9.52471 16.8216 0.0499294
    vertex 9.76225 16.8216 -2.65104
  endloop
endfacet
facet normal 0 1 0
  outer loop
    vertex 6.75975 16.8216 1.55223
    vertex 9.52471 16.8216 0.0499294
    vertex 6.43599 16.8216 -1.4127
  endloop
endfacet
facet normal 0 1 0
  outer loop
    vertex 1.06655 16.8216 -4.80529
    vertex -0.662756 16.8216 -7.69056
    vertex -2.45777 16.8216 -5.44369
  endloop
endfacet
facet normal 0 1 0
  outer loop
    vertex 4.44815 16.8216 -4.62696
    vertex 2.85224 16.8216 -7.28319
    vertex 1.06655 16.8216 -4.80529
  endloop
endfacet
facet normal 0 1 0
  outer loop
    vertex 2.85224 16.8216 -7.28319
    vertex -0.662756 16.8216 -7.69056
    vertex 1.06655 16.8216 -4.80529
  endloop
endfacet
facet normal 0 1 0
  outer loop
    vertex 6.79205 16.8216 7.55063
    vertex 8.55002 16.8216 5.70269
    vertex 5.75492 16.8216 4.57287
  endloop
endfacet
facet normal 0 1 0
  outer loop
    vertex -1.40653 16.8216 10.3687
    vertex 1.21488 16.8216 10.3006
    vertex -0.423261 16.8216 7.64647
  endloop
endfacet
facet normal 0 1 0
  outer loop
    vertex 5.89942 16.8216 -7.57591
    vertex 2.85224 16.8216 -7.28319
    vertex 4.44815 16.8216 -4.62696
  endloop
endfacet
facet normal 0 1 0
  outer loop
    vertex 5.89942 16.8216 -7.57591
    vertex 4.1207 16.8216 -9.52446
    vertex 2.85224 16.8216 -7.28319
  endloop
endfacet
facet normal 0 1 0
  outer loop
    vertex -7.72488 16.8216 5.52566
    vertex -6.43606 16.8216 7.89787
    vertex -4.20697 16.8216 5.97934
  endloop
endfacet
facet normal 0 1 0
  outer loop
    vertex -5.15058 16.8216 -6.11565
    vertex -6.71968 16.8216 -7.91628
    vertex -7.89487 16.8216 -5.59376
  endloop
endfacet
facet normal -0.108156 0 -0.994134
  outer loop
    vertex 0 13.207 -12.6873
    vertex -2.72831 14.0987 -12.3904
    vertex 0 16.8216 -12.6873
  endloop
endfacet
facet normal -0.142229 0.034675 -0.989226
  outer loop
    vertex 0 16.8216 -12.6873
    vertex -2.72831 14.0987 -12.3904
    vertex -3.57441 16.8216 -12.1733
  endloop
endfacet
facet normal -0.108354 0 0.994112
  outer loop
    vertex 1.55374e-015 16.8216 12.6873
    vertex -2.73325 14.0982 12.3893
    vertex 1.55374e-015 13.207 12.6873
  endloop
endfacet
facet normal -0.14223 0.0345325 0.989231
  outer loop
    vertex -3.57441 16.8216 12.1733
    vertex -2.73325 14.0982 12.3893
    vertex 1.55374e-015 16.8216 12.6873
  endloop
endfacet
facet normal -0.104313 0 0.994545
  outer loop
    vertex 1.55374e-015 5.97771 12.6873
    vertex -2.63244 5.01104 12.4112
    vertex 1.55374e-015 2.36308 12.6873
  endloop
endfacet
facet normal -0.142211 -0.0382442 0.989097
  outer loop
    vertex 1.55374e-015 2.36308 12.6873
    vertex -2.63244 5.01104 12.4112
    vertex -3.57441 2.36308 12.1733
  endloop
endfacet
facet normal -0.104278 0 -0.994548
  outer loop
    vertex 0 2.36308 -12.6873
    vertex -2.63158 5.01017 -12.4113
    vertex 0 5.97771 -12.6873
  endloop
endfacet
facet normal -0.142211 -0.0382785 -0.989096
  outer loop
    vertex -3.57441 2.36308 -12.1733
    vertex -2.63158 5.01017 -12.4113
    vertex 0 2.36308 -12.6873
  endloop
endfacet
facet normal -0.121395 0 0.992604
  outer loop
    vertex 1.55374e-015 13.207 12.6873
    vertex -3.05755 11.3197 12.3133
    vertex 1.55374e-015 9.59235 12.6873
  endloop
endfacet
facet normal -0.112857 -0.0140109 0.993512
  outer loop
    vertex 1.55374e-015 13.207 12.6873
    vertex -2.73325 14.0982 12.3893
    vertex -3.05755 11.3197 12.3133
  endloop
endfacet
facet normal -0.119826 0 0.992795
  outer loop
    vertex 1.55374e-015 9.59235 12.6873
    vertex -3.01863 7.81088 12.3229
    vertex 1.55374e-015 5.97771 12.6873
  endloop
endfacet
facet normal -0.120628 0.00137761 0.992697
  outer loop
    vertex -3.05755 11.3197 12.3133
    vertex -3.01863 7.81088 12.3229
    vertex 1.55374e-015 9.59235 12.6873
  endloop
endfacet
facet normal -0.110154 0.0161241 0.993784
  outer loop
    vertex -3.01863 7.81088 12.3229
    vertex -2.63244 5.01104 12.4112
    vertex 1.55374e-015 5.97771 12.6873
  endloop
endfacet
facet normal -0.121405 0 -0.992603
  outer loop
    vertex 0 9.59235 -12.6873
    vertex -3.05781 11.3195 -12.3133
    vertex 0 13.207 -12.6873
  endloop
endfacet
facet normal -0.112738 -0.014223 -0.993523
  outer loop
    vertex -3.05781 11.3195 -12.3133
    vertex -2.72831 14.0987 -12.3904
    vertex 0 13.207 -12.6873
  endloop
endfacet
facet normal -0.119849 0 -0.992792
  outer loop
    vertex 0 5.97771 -12.6873
    vertex -3.0192 7.80931 -12.3228
    vertex 0 9.59235 -12.6873
  endloop
endfacet
facet normal -0.120645 0.00136633 -0.992695
  outer loop
    vertex 0 9.59235 -12.6873
    vertex -3.0192 7.80931 -12.3228
    vertex -3.05781 11.3195 -12.3133
  endloop
endfacet
facet normal -0.110149 0.0161867 -0.993783
  outer loop
    vertex 0 5.97771 -12.6873
    vertex -2.63158 5.01017 -12.4113
    vertex -3.0192 7.80931 -12.3228
  endloop
endfacet
facet normal -0.415141 0.036302 0.909032
  outer loop
    vertex -6.85925 16.8216 10.6732
    vertex -5.60367 13.4142 11.3827
    vertex -3.57441 16.8216 12.1733
  endloop
endfacet
facet normal -0.325409 -0.0255358 0.945229
  outer loop
    vertex -5.60367 13.4142 11.3827
    vertex -2.73325 14.0982 12.3893
    vertex -3.57441 16.8216 12.1733
  endloop
endfacet
facet normal -0.653931 0.0532616 0.754677
  outer loop
    vertex -9.58839 16.8216 8.30839
    vertex -8.30667 14.4005 9.58987
    vertex -6.85925 16.8216 10.6732
  endloop
endfacet
facet normal -0.561136 -0.0345747 0.827001
  outer loop
    vertex -6.85925 16.8216 10.6732
    vertex -8.30667 14.4005 9.58987
    vertex -5.60367 13.4142 11.3827
  endloop
endfacet
facet normal -0.840536 0.0412929 0.54018
  outer loop
    vertex -11.5407 16.8216 5.27048
    vertex -10.6732 13.6969 6.85925
    vertex -9.58839 16.8216 8.30839
  endloop
endfacet
facet normal -0.748901 -0.046573 0.661043
  outer loop
    vertex -10.6732 13.6969 6.85925
    vertex -8.30667 14.4005 9.58987
    vertex -9.58839 16.8216 8.30839
  endloop
endfacet
facet normal -0.958675 0.0412929 0.281492
  outer loop
    vertex -12.5581 16.8216 1.80559
    vertex -12.1733 13.6969 3.57441
    vertex -11.5407 16.8216 5.27048
  endloop
endfacet
facet normal -0.908856 -0.0412929 0.415061
  outer loop
    vertex -11.5407 16.8216 5.27048
    vertex -12.1733 13.6969 3.57441
    vertex -10.6732 13.6969 6.85925
  endloop
endfacet
facet normal -0.999147 0.0412929 0
  outer loop
    vertex -12.5581 16.8216 -1.80559
    vertex -12.6873 13.6969 1.15172e-012
    vertex -12.5581 16.8216 1.80559
  endloop
endfacet
facet normal -0.988977 -0.0412929 0.142193
  outer loop
    vertex -12.6873 13.6969 1.15172e-012
    vertex -12.1733 13.6969 3.57441
    vertex -12.5581 16.8216 1.80559
  endloop
endfacet
facet normal -0.958659 0.0416857 -0.281488
  outer loop
    vertex -11.5407 16.8216 -5.27048
    vertex -12.1813 13.7272 -3.54707
    vertex -12.5581 16.8216 -1.80559
  endloop
endfacet
facet normal -0.989106 -0.0408449 -0.141427
  outer loop
    vertex -12.5581 16.8216 -1.80559
    vertex -12.1813 13.7272 -3.54707
    vertex -12.6873 13.6969 1.15172e-012
  endloop
endfacet
facet normal -0.840536 0.0412929 -0.54018
  outer loop
    vertex -9.58839 16.8216 -8.30839
    vertex -10.6732 13.6969 -6.85925
    vertex -11.5407 16.8216 -5.27048
  endloop
endfacet
facet normal -0.909434 -0.0421419 -0.413707
  outer loop
    vertex -10.6732 13.6969 -6.85925
    vertex -12.1813 13.7272 -3.54707
    vertex -11.5407 16.8216 -5.27048
  endloop
endfacet
facet normal -0.653934 0.0531795 -0.75468
  outer loop
    vertex -6.85925 16.8216 -10.6732
    vertex -8.30609 14.3967 -9.59038
    vertex -9.58839 16.8216 -8.30839
  endloop
endfacet
facet normal -0.748916 -0.04656 -0.661027
  outer loop
    vertex -9.58839 16.8216 -8.30839
    vertex -8.30609 14.3967 -9.59038
    vertex -10.6732 13.6969 -6.85925
  endloop
endfacet
facet normal -0.415139 0.0364692 -0.909027
  outer loop
    vertex -3.57441 16.8216 -12.1733
    vertex -5.58557 13.4142 -11.3916
    vertex -6.85925 16.8216 -10.6732
  endloop
endfacet
facet normal -0.560482 -0.0350633 -0.827424
  outer loop
    vertex -5.58557 13.4142 -11.3916
    vertex -8.30609 14.3967 -9.59038
    vertex -6.85925 16.8216 -10.6732
  endloop
endfacet
facet normal -0.324463 -0.0254317 -0.945557
  outer loop
    vertex -3.57441 16.8216 -12.1733
    vertex -2.72831 14.0987 -12.3904
    vertex -5.58557 13.4142 -11.3916
  endloop
endfacet
facet normal -0.415141 -0.0362999 0.909032
  outer loop
    vertex -3.57441 2.36308 12.1733
    vertex -5.84786 5.47056 11.2592
    vertex -6.85925 2.36308 10.6732
  endloop
endfacet
facet normal -0.332804 0.0337517 0.942392
  outer loop
    vertex -3.57441 2.36308 12.1733
    vertex -2.63244 5.01104 12.4112
    vertex -5.84786 5.47056 11.2592
  endloop
endfacet
facet normal -0.654302 -0.0412929 0.755105
  outer loop
    vertex -6.85925 2.36308 10.6732
    vertex -8.30839 5.48778 9.58839
    vertex -9.58839 2.36308 8.30839
  endloop
endfacet
facet normal -0.561435 0.0267664 0.827088
  outer loop
    vertex -6.85925 2.36308 10.6732
    vertex -5.84786 5.47056 11.2592
    vertex -8.30839 5.48778 9.58839
  endloop
endfacet
facet normal -0.839828 -0.0581853 0.539725
  outer loop
    vertex -9.58839 2.36308 8.30839
    vertex -10.6732 4.57875 6.85925
    vertex -11.5407 2.36308 5.27048
  endloop
endfacet
facet normal -0.762774 0.048303 0.644859
  outer loop
    vertex -8.30839 5.48778 9.58839
    vertex -10.6732 4.57875 6.85925
    vertex -9.58839 2.36308 8.30839
  endloop
endfacet
facet normal -0.957867 -0.0581853 0.281255
  outer loop
    vertex -11.5407 2.36308 5.27048
    vertex -12.1733 4.57875 3.57441
    vertex -12.5581 2.36308 1.80559
  endloop
endfacet
facet normal -0.908091 0.0581853 0.414711
  outer loop
    vertex -10.6732 4.57875 6.85925
    vertex -12.1733 4.57875 3.57441
    vertex -11.5407 2.36308 5.27048
  endloop
endfacet
facet normal -0.999147 -0.0412929 -0
  outer loop
    vertex -12.5581 2.36308 1.80559
    vertex -12.6873 5.48778 -8.93801e-015
    vertex -12.5581 2.36308 -1.80559
  endloop
endfacet
facet normal -0.986862 0.048303 0.154174
  outer loop
    vertex -12.5581 2.36308 1.80559
    vertex -12.1733 4.57875 3.57441
    vertex -12.6873 5.48778 -8.93801e-015
  endloop
endfacet
facet normal -0.958652 -0.0418655 -0.281486
  outer loop
    vertex -12.5581 2.36308 -1.80559
    vertex -12.1772 5.44479 -3.5611
    vertex -11.5407 2.36308 -5.27048
  endloop
endfacet
facet normal -0.988986 0.0412621 -0.142141
  outer loop
    vertex -12.6873 5.48778 -8.93801e-015
    vertex -12.1772 5.44479 -3.5611
    vertex -12.5581 2.36308 -1.80559
  endloop
endfacet
facet normal -0.840527 -0.0415413 -0.540174
  outer loop
    vertex -11.5407 2.36308 -5.27048
    vertex -10.7315 5.45791 -6.76773
    vertex -9.58839 2.36308 -8.30839
  endloop
endfacet
facet normal -0.910971 0.0395821 -0.410567
  outer loop
    vertex -11.5407 2.36308 -5.27048
    vertex -12.1772 5.44479 -3.5611
    vertex -10.7315 5.45791 -6.76773
  endloop
endfacet
facet normal -0.654287 -0.0418528 -0.755087
  outer loop
    vertex -9.58839 2.36308 -8.30839
    vertex -8.46434 5.40527 -9.451
    vertex -6.85925 2.36308 -10.6732
  endloop
endfacet
facet normal -0.762877 0.039491 -0.645337
  outer loop
    vertex -9.58839 2.36308 -8.30839
    vertex -10.7315 5.45791 -6.76773
    vertex -8.46434 5.40527 -9.451
  endloop
endfacet
facet normal -0.41511 -0.0383335 -0.908963
  outer loop
    vertex -6.85925 2.36308 -10.6732
    vertex -5.76483 5.41975 -11.3019
    vertex -3.57441 2.36308 -12.1733
  endloop
endfacet
facet normal -0.565305 0.0328718 -0.824227
  outer loop
    vertex -8.46434 5.40527 -9.451
    vertex -5.76483 5.41975 -11.3019
    vertex -6.85925 2.36308 -10.6732
  endloop
endfacet
facet normal -0.329804 0.0326388 -0.943485
  outer loop
    vertex -5.76483 5.41975 -11.3019
    vertex -2.63158 5.01017 -12.4113
    vertex -3.57441 2.36308 -12.1733
  endloop
endfacet
facet normal -0.763591 -0.0417814 -0.644346
  outer loop
    vertex -10.7315 5.45791 -6.76773
    vertex -9.80893 8.3238 -8.04682
    vertex -8.46434 5.40527 -9.451
  endloop
endfacet
facet normal -0.565212 -0.0255808 -0.824549
  outer loop
    vertex -8.46434 5.40527 -9.451
    vertex -7.97156 8.02908 -9.8702
    vertex -5.76483 5.41975 -11.3019
  endloop
endfacet
facet normal -0.702792 0.0183743 -0.711158
  outer loop
    vertex -9.80893 8.3238 -8.04682
    vertex -7.97156 8.02908 -9.8702
    vertex -8.46434 5.40527 -9.451
  endloop
endfacet
facet normal -0.756542 0.00681531 0.65391
  outer loop
    vertex -8.41469 11.4902 9.49524
    vertex -8.30667 14.4005 9.58987
    vertex -10.6732 13.6969 6.85925
  endloop
endfacet
facet normal -0.749438 0.0233465 0.661662
  outer loop
    vertex -10.6732 13.6969 6.85925
    vertex -10.2998 10.1273 7.40809
    vertex -8.41469 11.4902 9.49524
  endloop
endfacet
facet normal -0.908939 0.0390336 0.415098
  outer loop
    vertex -12.1733 13.6969 3.57441
    vertex -11.6962 10.5422 4.91593
    vertex -10.6732 13.6969 6.85925
  endloop
endfacet
facet normal -0.873452 -0.0165372 0.486629
  outer loop
    vertex -11.6962 10.5422 4.91593
    vertex -10.2998 10.1273 7.40809
    vertex -10.6732 13.6969 6.85925
  endloop
endfacet
facet normal -0.989194 0.0144526 0.1459
  outer loop
    vertex -12.6873 5.48778 -8.93801e-015
    vertex -12.1733 4.57875 3.57441
    vertex -12.0911 7.4906 3.84332
  endloop
endfacet
facet normal -0.988184 -5.5723e-016 0.153275
  outer loop
    vertex -12.0911 7.4906 3.84332
    vertex -12.6873 8.35655 2.33053e-015
    vertex -12.6873 5.48778 -8.93801e-015
  endloop
endfacet
facet normal -0.989323 -0.0358727 -0.141258
  outer loop
    vertex -12.6873 5.48778 -8.93801e-015
    vertex -12.3991 8.12834 -2.68848
    vertex -12.1772 5.44479 -3.5611
  endloop
endfacet
facet normal -0.994306 4.18564e-016 -0.106559
  outer loop
    vertex -12.6873 8.35655 2.33053e-015
    vertex -12.3991 8.12834 -2.68848
    vertex -12.6873 5.48778 -8.93801e-015
  endloop
endfacet
facet normal -0.768229 -0.0134225 0.640035
  outer loop
    vertex -8.30839 5.48778 9.58839
    vertex -8.50169 8.39891 9.41742
    vertex -10.8442 7.43829 6.58558
  endloop
endfacet
facet normal -0.758436 0.0169997 0.651526
  outer loop
    vertex -10.8442 7.43829 6.58558
    vertex -10.6732 4.57875 6.85925
    vertex -8.30839 5.48778 9.58839
  endloop
endfacet
facet normal -0.561675 0.0112906 0.827281
  outer loop
    vertex -5.84786 5.47056 11.2592
    vertex -8.50169 8.39891 9.41742
    vertex -8.30839 5.48778 9.58839
  endloop
endfacet
facet normal -0.75823 0.0216209 -0.651629
  outer loop
    vertex -10.6732 13.6969 -6.85925
    vertex -8.30609 14.3967 -9.59038
    vertex -8.70184 11.2952 -9.23279
  endloop
endfacet
facet normal -0.765744 0.00703198 -0.643108
  outer loop
    vertex -8.70184 11.2952 -9.23279
    vertex -10.5797 10.7674 -7.00264
    vertex -10.6732 13.6969 -6.85925
  endloop
endfacet
facet normal -0.909046 0.0444225 -0.414321
  outer loop
    vertex -10.6732 13.6969 -6.85925
    vertex -11.7847 11.0931 -4.69979
    vertex -12.1813 13.7272 -3.54707
  endloop
endfacet
facet normal -0.886344 -0.0056345 -0.462994
  outer loop
    vertex -10.5797 10.7674 -7.00264
    vertex -11.7847 11.0931 -4.69979
    vertex -10.6732 13.6969 -6.85925
  endloop
endfacet
facet normal -0.988977 0.0412929 0.142193
  outer loop
    vertex -12.6873 13.6969 1.15172e-012
    vertex -12.5581 10.5722 1.80559
    vertex -12.1733 13.6969 3.57441
  endloop
endfacet
facet normal -0.999147 -0.0412929 7.86455e-017
  outer loop
    vertex -12.6873 13.6969 1.15172e-012
    vertex -12.5581 10.5722 -1.80559
    vertex -12.5581 10.5722 1.80559
  endloop
endfacet
facet normal -0.989219 0.0404488 -0.14075
  outer loop
    vertex -12.6873 13.6969 1.15172e-012
    vertex -12.1813 13.7272 -3.54707
    vertex -12.5581 10.5722 -1.80559
  endloop
endfacet
facet normal -0.343047 -0.00122465 -0.939318
  outer loop
    vertex -3.0192 7.80931 -12.3228
    vertex -5.61466 9.62332 -11.3773
    vertex -3.05781 11.3195 -12.3133
  endloop
endfacet
facet normal -0.34323 -0.000911366 -0.939251
  outer loop
    vertex -5.61466 9.62332 -11.3773
    vertex -5.58557 13.4142 -11.3916
    vertex -3.05781 11.3195 -12.3133
  endloop
endfacet
facet normal -0.332806 0.0132738 -0.942902
  outer loop
    vertex -5.58557 13.4142 -11.3916
    vertex -2.72831 14.0987 -12.3904
    vertex -3.05781 11.3195 -12.3133
  endloop
endfacet
facet normal -0.357825 -0.00141435 0.933788
  outer loop
    vertex -3.05755 11.3197 12.3133
    vertex -5.97156 9.58899 11.1941
    vertex -3.01863 7.81088 12.3229
  endloop
endfacet
facet normal -0.352167 -0.0122771 0.935856
  outer loop
    vertex -3.05755 11.3197 12.3133
    vertex -5.60367 13.4142 11.3827
    vertex -5.97156 9.58899 11.1941
  endloop
endfacet
facet normal -0.333703 0.013159 0.942586
  outer loop
    vertex -3.05755 11.3197 12.3133
    vertex -2.73325 14.0982 12.3893
    vertex -5.60367 13.4142 11.3827
  endloop
endfacet
facet normal -0.345061 -0.00449705 -0.938569
  outer loop
    vertex -3.0192 7.80931 -12.3228
    vertex -5.76483 5.41975 -11.3019
    vertex -5.61466 9.62332 -11.3773
  endloop
endfacet
facet normal -0.335667 -0.0166857 -0.941833
  outer loop
    vertex -3.0192 7.80931 -12.3228
    vertex -2.63158 5.01017 -12.4113
    vertex -5.76483 5.41975 -11.3019
  endloop
endfacet
facet normal -0.570037 0.00127252 -0.821618
  outer loop
    vertex -5.61466 9.62332 -11.3773
    vertex -8.70184 11.2952 -9.23279
    vertex -5.58557 13.4142 -11.3916
  endloop
endfacet
facet normal -0.556272 0.0376291 -0.830148
  outer loop
    vertex -5.61466 9.62332 -11.3773
    vertex -7.97156 8.02908 -9.8702
    vertex -8.70184 11.2952 -9.23279
  endloop
endfacet
facet normal -0.540741 0.00423969 -0.841179
  outer loop
    vertex -5.76483 5.41975 -11.3019
    vertex -7.97156 8.02908 -9.8702
    vertex -5.61466 9.62332 -11.3773
  endloop
endfacet
facet normal -0.558003 -0.0244335 -0.829479
  outer loop
    vertex -8.70184 11.2952 -9.23279
    vertex -8.30609 14.3967 -9.59038
    vertex -5.58557 13.4142 -11.3916
  endloop
endfacet
facet normal -0.768176 0.0309695 -0.63949
  outer loop
    vertex -9.80893 8.3238 -8.04682
    vertex -10.5797 10.7674 -7.00264
    vertex -8.70184 11.2952 -9.23279
  endloop
endfacet
facet normal -0.705846 -0.0196339 -0.708093
  outer loop
    vertex -8.70184 11.2952 -9.23279
    vertex -7.97156 8.02908 -9.8702
    vertex -9.80893 8.3238 -8.04682
  endloop
endfacet
facet normal -0.354913 0.0041212 0.93489
  outer loop
    vertex -5.97156 9.58899 11.1941
    vertex -5.84786 5.47056 11.2592
    vertex -3.01863 7.81088 12.3229
  endloop
endfacet
facet normal -0.3394 -0.0171759 0.940485
  outer loop
    vertex -5.84786 5.47056 11.2592
    vertex -2.63244 5.01104 12.4112
    vertex -3.01863 7.81088 12.3229
  endloop
endfacet
facet normal -0.563743 0.0134964 0.82584
  outer loop
    vertex -5.60367 13.4142 11.3827
    vertex -8.41469 11.4902 9.49524
    vertex -5.97156 9.58899 11.1941
  endloop
endfacet
facet normal -0.573245 -0.00449301 0.819372
  outer loop
    vertex -8.41469 11.4902 9.49524
    vertex -8.50169 8.39891 9.41742
    vertex -5.97156 9.58899 11.1941
  endloop
endfacet
facet normal -0.573317 -0.00426565 0.819323
  outer loop
    vertex -5.97156 9.58899 11.1941
    vertex -8.50169 8.39891 9.41742
    vertex -5.84786 5.47056 11.2592
  endloop
endfacet
facet normal -0.554367 -0.00648807 0.832247
  outer loop
    vertex -5.60367 13.4142 11.3827
    vertex -8.30667 14.4005 9.58987
    vertex -8.41469 11.4902 9.49524
  endloop
endfacet
facet normal -0.743425 0.0040869 0.668807
  outer loop
    vertex -8.41469 11.4902 9.49524
    vertex -10.2998 10.1273 7.40809
    vertex -8.50169 8.39891 9.41742
  endloop
endfacet
facet normal -0.963256 -0.0323171 0.266633
  outer loop
    vertex -12.1733 13.6969 3.57441
    vertex -12.5581 10.5722 1.80559
    vertex -11.6962 10.5422 4.91593
  endloop
endfacet
facet normal -0.963148 0.0307382 0.267211
  outer loop
    vertex -12.5581 10.5722 1.80559
    vertex -12.0911 7.4906 3.84332
    vertex -11.6962 10.5422 4.91593
  endloop
endfacet
facet normal -0.910164 -0.0274806 0.413336
  outer loop
    vertex -12.0911 7.4906 3.84332
    vertex -10.8442 7.43829 6.58558
    vertex -11.6962 10.5422 4.91593
  endloop
endfacet
facet normal -0.870279 0.0257201 0.491886
  outer loop
    vertex -10.8442 7.43829 6.58558
    vertex -10.2998 10.1273 7.40809
    vertex -11.6962 10.5422 4.91593
  endloop
endfacet
facet normal -0.998306 0.0581853 -1.14487e-016
  outer loop
    vertex -12.5581 10.5722 -1.80559
    vertex -12.6873 8.35655 2.33053e-015
    vertex -12.5581 10.5722 1.80559
  endloop
endfacet
facet normal -0.988445 -0.0568843 0.140499
  outer loop
    vertex -12.5581 10.5722 1.80559
    vertex -12.6873 8.35655 2.33053e-015
    vertex -12.0911 7.4906 3.84332
  endloop
endfacet
facet normal -0.964297 -0.0300686 -0.26311
  outer loop
    vertex -12.1813 13.7272 -3.54707
    vertex -11.7847 11.0931 -4.69979
    vertex -12.5581 10.5722 -1.80559
  endloop
endfacet
facet normal -0.994184 -0.0270123 -0.104253
  outer loop
    vertex -12.5581 10.5722 -1.80559
    vertex -12.3991 8.12834 -2.68848
    vertex -12.6873 8.35655 2.33053e-015
  endloop
endfacet
facet normal -0.966973 0.0285926 -0.253268
  outer loop
    vertex -11.7847 11.0931 -4.69979
    vertex -12.3991 8.12834 -2.68848
    vertex -12.5581 10.5722 -1.80559
  endloop
endfacet
facet normal -0.910329 -0.0125045 0.413696
  outer loop
    vertex -12.0911 7.4906 3.84332
    vertex -12.1733 4.57875 3.57441
    vertex -10.8442 7.43829 6.58558
  endloop
endfacet
facet normal -0.762605 -0.0430423 0.645431
  outer loop
    vertex -8.50169 8.39891 9.41742
    vertex -10.2998 10.1273 7.40809
    vertex -10.8442 7.43829 6.58558
  endloop
endfacet
facet normal -0.909535 -0.0146368 0.415371
  outer loop
    vertex -10.8442 7.43829 6.58558
    vertex -12.1733 4.57875 3.57441
    vertex -10.6732 4.57875 6.85925
  endloop
endfacet
facet normal -0.910909 -0.0379861 -0.410856
  outer loop
    vertex -12.1772 5.44479 -3.5611
    vertex -11.4013 8.51931 -5.56571
    vertex -10.7315 5.45791 -6.76773
  endloop
endfacet
facet normal -0.840205 0.0287806 -0.541504
  outer loop
    vertex -11.4013 8.51931 -5.56571
    vertex -9.80893 8.3238 -8.04682
    vertex -10.7315 5.45791 -6.76773
  endloop
endfacet
facet normal -0.945584 0.027243 -0.324235
  outer loop
    vertex -12.1772 5.44479 -3.5611
    vertex -12.3991 8.12834 -2.68848
    vertex -11.4013 8.51931 -5.56571
  endloop
endfacet
facet normal -0.842327 -0.0358841 -0.537771
  outer loop
    vertex -11.4013 8.51931 -5.56571
    vertex -10.5797 10.7674 -7.00264
    vertex -9.80893 8.3238 -8.04682
  endloop
endfacet
facet normal -0.884285 0.0251513 -0.46627
  outer loop
    vertex -11.4013 8.51931 -5.56571
    vertex -11.7847 11.0931 -4.69979
    vertex -10.5797 10.7674 -7.00264
  endloop
endfacet
facet normal -0.943163 -0.0291123 -0.331053
  outer loop
    vertex -11.4013 8.51931 -5.56571
    vertex -12.3991 8.12834 -2.68848
    vertex -11.7847 11.0931 -4.69979
  endloop
endfacet
facet normal 0 -1 0
  outer loop
    vertex 1.55374e-015 2.36308 12.6873
    vertex 1.34214 2.36308 9.33476
    vertex 3.57441 2.36308 12.1733
  endloop
endfacet
facet normal 0 -1 0
  outer loop
    vertex -3.57441 2.36308 12.1733
    vertex -1.36524 2.36308 9.91211
    vertex 1.55374e-015 2.36308 12.6873
  endloop
endfacet
facet normal 0 -1 -0
  outer loop
    vertex 1.55374e-015 2.36308 12.6873
    vertex -1.36524 2.36308 9.91211
    vertex 1.34214 2.36308 9.33476
  endloop
endfacet
facet normal -0 -1 0
  outer loop
    vertex 3.57441 2.36308 -12.1733
    vertex 1.48328 2.36308 -10.2929
    vertex 0 2.36308 -12.6873
  endloop
endfacet
facet normal 0 -1 0
  outer loop
    vertex 0 2.36308 -12.6873
    vertex -1.33031 2.36308 -9.89641
    vertex -3.57441 2.36308 -12.1733
  endloop
endfacet
facet normal 0 -1 0
  outer loop
    vertex 0 2.36308 -12.6873
    vertex 1.48328 2.36308 -10.2929
    vertex -1.33031 2.36308 -9.89641
  endloop
endfacet
facet normal -0 -1 0
  outer loop
    vertex 6.85925 2.36308 -10.6732
    vertex 4.19517 2.36308 -8.54724
    vertex 3.57441 2.36308 -12.1733
  endloop
endfacet
facet normal 0 -1 0
  outer loop
    vertex 4.19517 2.36308 -8.54724
    vertex 1.48328 2.36308 -10.2929
    vertex 3.57441 2.36308 -12.1733
  endloop
endfacet
facet normal -0 -1 0
  outer loop
    vertex 9.58839 2.36308 -8.30839
    vertex 6.89678 2.36308 -8.23942
    vertex 6.85925 2.36308 -10.6732
  endloop
endfacet
facet normal 0 -1 0
  outer loop
    vertex 6.85925 2.36308 -10.6732
    vertex 6.89678 2.36308 -8.23942
    vertex 4.19517 2.36308 -8.54724
  endloop
endfacet
facet normal 0 -1 0
  outer loop
    vertex 11.5407 2.36308 -5.27048
    vertex 6.74798 2.36308 -5.65047
    vertex 9.58839 2.36308 -8.30839
  endloop
endfacet
facet normal 0 -1 0
  outer loop
    vertex 6.74798 2.36308 -5.65047
    vertex 6.89678 2.36308 -8.23942
    vertex 9.58839 2.36308 -8.30839
  endloop
endfacet
facet normal 0 -1 0
  outer loop
    vertex 12.5581 2.36308 -1.80559
    vertex 8.69056 2.36308 -2.38908
    vertex 11.5407 2.36308 -5.27048
  endloop
endfacet
facet normal 0 -1 -0
  outer loop
    vertex 8.69056 2.36308 -2.38908
    vertex 6.74798 2.36308 -5.65047
    vertex 11.5407 2.36308 -5.27048
  endloop
endfacet
facet normal 0 -1 -0
  outer loop
    vertex 12.5581 2.36308 1.80559
    vertex 10.1967 2.36308 -0.0280741
    vertex 12.5581 2.36308 -1.80559
  endloop
endfacet
facet normal -0 -1 0
  outer loop
    vertex 12.5581 2.36308 -1.80559
    vertex 10.1967 2.36308 -0.0280741
    vertex 8.69056 2.36308 -2.38908
  endloop
endfacet
facet normal 0 -1 -0
  outer loop
    vertex 11.5407 2.36308 5.27048
    vertex 9.70986 2.36308 2.48193
    vertex 12.5581 2.36308 1.80559
  endloop
endfacet
facet normal 0 -1 0
  outer loop
    vertex 9.70986 2.36308 2.48193
    vertex 10.1967 2.36308 -0.0280741
    vertex 12.5581 2.36308 1.80559
  endloop
endfacet
facet normal 0 -1 -0
  outer loop
    vertex 9.58839 2.36308 8.30839
    vertex 7.93366 2.36308 5.09865
    vertex 11.5407 2.36308 5.27048
  endloop
endfacet
facet normal 0 -1 0
  outer loop
    vertex 7.93366 2.36308 5.09865
    vertex 9.70986 2.36308 2.48193
    vertex 11.5407 2.36308 5.27048
  endloop
endfacet
facet normal 0 -1 -0
  outer loop
    vertex 6.85925 2.36308 10.6732
    vertex 5.51716 2.36308 7.39439
    vertex 9.58839 2.36308 8.30839
  endloop
endfacet
facet normal 0 -1 0
  outer loop
    vertex 9.58839 2.36308 8.30839
    vertex 5.51716 2.36308 7.39439
    vertex 7.93366 2.36308 5.09865
  endloop
endfacet
facet normal 0 -1 0
  outer loop
    vertex 3.57441 2.36308 12.1733
    vertex 3.92537 2.36308 9.5048
    vertex 6.85925 2.36308 10.6732
  endloop
endfacet
facet normal 0 -1 0
  outer loop
    vertex 6.85925 2.36308 10.6732
    vertex 3.92537 2.36308 9.5048
    vertex 5.51716 2.36308 7.39439
  endloop
endfacet
facet normal 0 -1 0
  outer loop
    vertex 1.34214 2.36308 9.33476
    vertex 3.92537 2.36308 9.5048
    vertex 3.57441 2.36308 12.1733
  endloop
endfacet
facet normal 0 -1 0
  outer loop
    vertex -6.85925 2.36308 10.6732
    vertex -3.99353 2.36308 7.9556
    vertex -3.57441 2.36308 12.1733
  endloop
endfacet
facet normal 0 -1 0
  outer loop
    vertex -3.99353 2.36308 7.9556
    vertex -1.36524 2.36308 9.91211
    vertex -3.57441 2.36308 12.1733
  endloop
endfacet
facet normal 0 -1 0
  outer loop
    vertex -9.58839 2.36308 8.30839
    vertex -7.02892 2.36308 7.30688
    vertex -6.85925 2.36308 10.6732
  endloop
endfacet
facet normal 0 -1 -0
  outer loop
    vertex -6.85925 2.36308 10.6732
    vertex -7.02892 2.36308 7.30688
    vertex -3.99353 2.36308 7.9556
  endloop
endfacet
facet normal 0 -1 0
  outer loop
    vertex -11.5407 2.36308 5.27048
    vertex -8.78648 2.36308 5.40184
    vertex -9.58839 2.36308 8.30839
  endloop
endfacet
facet normal 0 -1 0
  outer loop
    vertex -9.58839 2.36308 8.30839
    vertex -8.78648 2.36308 5.40184
    vertex -7.02892 2.36308 7.30688
  endloop
endfacet
facet normal 0 -1 0
  outer loop
    vertex -12.5581 2.36308 1.80559
    vertex -9.13195 2.36308 2.7301
    vertex -11.5407 2.36308 5.27048
  endloop
endfacet
facet normal 0 -1 0
  outer loop
    vertex -9.13195 2.36308 2.7301
    vertex -8.78648 2.36308 5.40184
    vertex -11.5407 2.36308 5.27048
  endloop
endfacet
facet normal 0 -1 0
  outer loop
    vertex -12.5581 2.36308 -1.80559
    vertex -10.3316 2.36308 0.286381
    vertex -12.5581 2.36308 1.80559
  endloop
endfacet
facet normal 0 -1 0
  outer loop
    vertex -12.5581 2.36308 1.80559
    vertex -10.3316 2.36308 0.286381
    vertex -9.13195 2.36308 2.7301
  endloop
endfacet
facet normal 0 -1 0
  outer loop
    vertex -11.5407 2.36308 -5.27048
    vertex -9.23168 2.36308 -2.21717
    vertex -12.5581 2.36308 -1.80559
  endloop
endfacet
facet normal 0 -1 0
  outer loop
    vertex -9.23168 2.36308 -2.21717
    vertex -10.3316 2.36308 0.286381
    vertex -12.5581 2.36308 -1.80559
  endloop
endfacet
facet normal 0 -1 0
  outer loop
    vertex -9.58839 2.36308 -8.30839
    vertex -7.93366 2.36308 -5.09865
    vertex -11.5407 2.36308 -5.27048
  endloop
endfacet
facet normal -0 -1 0
  outer loop
    vertex -7.93366 2.36308 -5.09865
    vertex -9.23168 2.36308 -2.21717
    vertex -11.5407 2.36308 -5.27048
  endloop
endfacet
facet normal 0 -1 0
  outer loop
    vertex -6.85925 2.36308 -10.6732
    vertex -6.19033 2.36308 -7.65023
    vertex -9.58839 2.36308 -8.30839
  endloop
endfacet
facet normal 0 -1 0
  outer loop
    vertex -9.58839 2.36308 -8.30839
    vertex -6.19033 2.36308 -7.65023
    vertex -7.93366 2.36308 -5.09865
  endloop
endfacet
facet normal 0 -1 0
  outer loop
    vertex -3.57441 2.36308 -12.1733
    vertex -4.17485 2.36308 -9.4526
    vertex -6.85925 2.36308 -10.6732
  endloop
endfacet
facet normal 0 -1 0
  outer loop
    vertex -6.85925 2.36308 -10.6732
    vertex -4.17485 2.36308 -9.4526
    vertex -6.19033 2.36308 -7.65023
  endloop
endfacet
facet normal -0 -1 0
  outer loop
    vertex -1.33031 2.36308 -9.89641
    vertex -4.17485 2.36308 -9.4526
    vertex -3.57441 2.36308 -12.1733
  endloop
endfacet
facet normal -0 -1 0
  outer loop
    vertex 1.34214 2.36308 9.33476
    vertex -1.36524 2.36308 9.91211
    vertex -0.409988 2.36308 6.91845
  endloop
endfacet
facet normal 0 -1 0
  outer loop
    vertex -0.409988 2.36308 6.91845
    vertex 2.67797 2.36308 6.84491
    vertex 1.34214 2.36308 9.33476
  endloop
endfacet
facet normal 0 -1 0
  outer loop
    vertex 2.67797 2.36308 6.84491
    vertex 3.92537 2.36308 9.5048
    vertex 1.34214 2.36308 9.33476
  endloop
endfacet
facet normal 0 -1 0
  outer loop
    vertex -1.33031 2.36308 -9.89641
    vertex 1.48328 2.36308 -10.2929
    vertex 0.923841 2.36308 -7.67652
  endloop
endfacet
facet normal -0 -1 0
  outer loop
    vertex 0.923841 2.36308 -7.67652
    vertex -2.72321 2.36308 -7.18146
    vertex -1.33031 2.36308 -9.89641
  endloop
endfacet
facet normal 0 -1 0
  outer loop
    vertex -1.33031 2.36308 -9.89641
    vertex -2.72321 2.36308 -7.18146
    vertex -4.17485 2.36308 -9.4526
  endloop
endfacet
facet normal 0 -1 0
  outer loop
    vertex 8.69056 2.36308 -2.38908
    vertex 6.82631 2.36308 0.979044
    vertex 4.74274 2.36308 -2.26566
  endloop
endfacet
facet normal 0 -1 0
  outer loop
    vertex 4.74274 2.36308 -2.26566
    vertex 6.74798 2.36308 -5.65047
    vertex 8.69056 2.36308 -2.38908
  endloop
endfacet
facet normal 0 -1 0
  outer loop
    vertex 8.69056 2.36308 -2.38908
    vertex 10.1967 2.36308 -0.0280741
    vertex 6.82631 2.36308 0.979044
  endloop
endfacet
facet normal 0 -1 0
  outer loop
    vertex -9.13195 2.36308 2.7301
    vertex -7.07649 2.36308 0.668047
    vertex -5.91697 2.36308 4.19539
  endloop
endfacet
facet normal -0 -1 0
  outer loop
    vertex -5.91697 2.36308 4.19539
    vertex -8.78648 2.36308 5.40184
    vertex -9.13195 2.36308 2.7301
  endloop
endfacet
facet normal 0 -1 -0
  outer loop
    vertex -9.13195 2.36308 2.7301
    vertex -10.3316 2.36308 0.286381
    vertex -7.07649 2.36308 0.668047
  endloop
endfacet
facet normal 0 -1 0
  outer loop
    vertex 7.93366 2.36308 5.09865
    vertex 4.65685 2.36308 3.93197
    vertex 6.82631 2.36308 0.979044
  endloop
endfacet
facet normal 0 -1 0
  outer loop
    vertex 6.82631 2.36308 0.979044
    vertex 9.70986 2.36308 2.48193
    vertex 7.93366 2.36308 5.09865
  endloop
endfacet
facet normal -0 -1 0
  outer loop
    vertex 7.93366 2.36308 5.09865
    vertex 5.51716 2.36308 7.39439
    vertex 4.65685 2.36308 3.93197
  endloop
endfacet
facet normal 0 -1 0
  outer loop
    vertex -6.19033 2.36308 -7.65023
    vertex -4.41756 2.36308 -4.85991
    vertex -7.93366 2.36308 -5.09865
  endloop
endfacet
facet normal -0 -1 0
  outer loop
    vertex -4.41756 2.36308 -4.85991
    vertex -5.94947 2.36308 -2.08271
    vertex -7.93366 2.36308 -5.09865
  endloop
endfacet
facet normal 0 -1 0
  outer loop
    vertex -5.94947 2.36308 -2.08271
    vertex -9.23168 2.36308 -2.21717
    vertex -7.93366 2.36308 -5.09865
  endloop
endfacet
facet normal -0 -1 0
  outer loop
    vertex 6.74798 2.36308 -5.65047
    vertex 2.83717 2.36308 -5.19011
    vertex 4.19517 2.36308 -8.54724
  endloop
endfacet
facet normal 0 -1 0
  outer loop
    vertex 4.19517 2.36308 -8.54724
    vertex 6.89678 2.36308 -8.23942
    vertex 6.74798 2.36308 -5.65047
  endloop
endfacet
facet normal 0 -1 -0
  outer loop
    vertex 2.83717 2.36308 -5.19011
    vertex 0.923841 2.36308 -7.67652
    vertex 4.19517 2.36308 -8.54724
  endloop
endfacet
facet normal 0 -1 0
  outer loop
    vertex 0.923841 2.36308 -7.67652
    vertex 1.48328 2.36308 -10.2929
    vertex 4.19517 2.36308 -8.54724
  endloop
endfacet
facet normal 0 -1 -0
  outer loop
    vertex -3.99353 2.36308 7.9556
    vertex -5.91697 2.36308 4.19539
    vertex -2.4372 2.36308 4.18364
  endloop
endfacet
facet normal 0 -1 0
  outer loop
    vertex -2.4372 2.36308 4.18364
    vertex -0.409988 2.36308 6.91845
    vertex -3.99353 2.36308 7.9556
  endloop
endfacet
facet normal 0 -1 0
  outer loop
    vertex -3.99353 2.36308 7.9556
    vertex -7.02892 2.36308 7.30688
    vertex -5.91697 2.36308 4.19539
  endloop
endfacet
facet normal 0 -1 0
  outer loop
    vertex -0.409988 2.36308 6.91845
    vertex -1.36524 2.36308 9.91211
    vertex -3.99353 2.36308 7.9556
  endloop
endfacet
facet normal 0 -1 0
  outer loop
    vertex -6.19033 2.36308 -7.65023
    vertex -2.72321 2.36308 -7.18146
    vertex -4.41756 2.36308 -4.85991
  endloop
endfacet
facet normal 0 -1 0
  outer loop
    vertex -4.17485 2.36308 -9.4526
    vertex -2.72321 2.36308 -7.18146
    vertex -6.19033 2.36308 -7.65023
  endloop
endfacet
facet normal 0 -1 0
  outer loop
    vertex -4.41756 2.36308 -4.85991
    vertex -2.55849 2.36308 -2.05435
    vertex -5.94947 2.36308 -2.08271
  endloop
endfacet
facet normal 0 -1 0
  outer loop
    vertex -4.41756 2.36308 -4.85991
    vertex -0.803283 2.36308 -4.84811
    vertex -2.55849 2.36308 -2.05435
  endloop
endfacet
facet normal 0 -1 0
  outer loop
    vertex -4.41756 2.36308 -4.85991
    vertex -2.72321 2.36308 -7.18146
    vertex -0.803283 2.36308 -4.84811
  endloop
endfacet
facet normal -0 -1 0
  outer loop
    vertex -2.55849 2.36308 -2.05435
    vertex -4.10475 2.36308 0.98689
    vertex -5.94947 2.36308 -2.08271
  endloop
endfacet
facet normal 0 -1 0
  outer loop
    vertex -4.10475 2.36308 0.98689
    vertex -7.07649 2.36308 0.668047
    vertex -5.94947 2.36308 -2.08271
  endloop
endfacet
facet normal -0 -1 0
  outer loop
    vertex -5.94947 2.36308 -2.08271
    vertex -7.07649 2.36308 0.668047
    vertex -9.23168 2.36308 -2.21717
  endloop
endfacet
facet normal 0 -1 0
  outer loop
    vertex -2.55849 2.36308 -2.05435
    vertex -0.661487 2.36308 0.995834
    vertex -4.10475 2.36308 0.98689
  endloop
endfacet
facet normal 0 -1 0
  outer loop
    vertex -2.55849 2.36308 -2.05435
    vertex 1.03563 2.36308 -2.1452
    vertex -0.661487 2.36308 0.995834
  endloop
endfacet
facet normal 0 -1 0
  outer loop
    vertex -2.55849 2.36308 -2.05435
    vertex -0.803283 2.36308 -4.84811
    vertex 1.03563 2.36308 -2.1452
  endloop
endfacet
facet normal -0 -1 0
  outer loop
    vertex -0.661487 2.36308 0.995834
    vertex -2.4372 2.36308 4.18364
    vertex -4.10475 2.36308 0.98689
  endloop
endfacet
facet normal -0 -1 0
  outer loop
    vertex -2.4372 2.36308 4.18364
    vertex -5.91697 2.36308 4.19539
    vertex -4.10475 2.36308 0.98689
  endloop
endfacet
facet normal 0 -1 -0
  outer loop
    vertex -5.91697 2.36308 4.19539
    vertex -7.07649 2.36308 0.668047
    vertex -4.10475 2.36308 0.98689
  endloop
endfacet
facet normal 0 -1 0
  outer loop
    vertex 1.03563 2.36308 -2.1452
    vertex 2.89553 2.36308 0.910844
    vertex -0.661487 2.36308 0.995834
  endloop
endfacet
facet normal 0 -1 0
  outer loop
    vertex 2.89553 2.36308 0.910844
    vertex 1.07572 2.36308 3.85858
    vertex -0.661487 2.36308 0.995834
  endloop
endfacet
facet normal -0 -1 0
  outer loop
    vertex 1.07572 2.36308 3.85858
    vertex -2.4372 2.36308 4.18364
    vertex -0.661487 2.36308 0.995834
  endloop
endfacet
facet normal 0 -1 0
  outer loop
    vertex 1.03563 2.36308 -2.1452
    vertex 4.74274 2.36308 -2.26566
    vertex 2.89553 2.36308 0.910844
  endloop
endfacet
facet normal 0 -1 0
  outer loop
    vertex 1.03563 2.36308 -2.1452
    vertex 2.83717 2.36308 -5.19011
    vertex 4.74274 2.36308 -2.26566
  endloop
endfacet
facet normal 0 -1 0
  outer loop
    vertex -0.803283 2.36308 -4.84811
    vertex 2.83717 2.36308 -5.19011
    vertex 1.03563 2.36308 -2.1452
  endloop
endfacet
facet normal 0 -1 0
  outer loop
    vertex 2.89553 2.36308 0.910844
    vertex 4.65685 2.36308 3.93197
    vertex 1.07572 2.36308 3.85858
  endloop
endfacet
facet normal 0 -1 0
  outer loop
    vertex 4.74274 2.36308 -2.26566
    vertex 6.82631 2.36308 0.979044
    vertex 2.89553 2.36308 0.910844
  endloop
endfacet
facet normal -0 -1 0
  outer loop
    vertex 6.82631 2.36308 0.979044
    vertex 4.65685 2.36308 3.93197
    vertex 2.89553 2.36308 0.910844
  endloop
endfacet
facet normal 0 -1 0
  outer loop
    vertex 1.07572 2.36308 3.85858
    vertex -0.409988 2.36308 6.91845
    vertex -2.4372 2.36308 4.18364
  endloop
endfacet
facet normal -0 -1 0
  outer loop
    vertex 4.65685 2.36308 3.93197
    vertex 2.67797 2.36308 6.84491
    vertex 1.07572 2.36308 3.85858
  endloop
endfacet
facet normal 0 -1 0
  outer loop
    vertex 1.07572 2.36308 3.85858
    vertex 2.67797 2.36308 6.84491
    vertex -0.409988 2.36308 6.91845
  endloop
endfacet
facet normal 0 -1 -0
  outer loop
    vertex 4.74274 2.36308 -2.26566
    vertex 2.83717 2.36308 -5.19011
    vertex 6.74798 2.36308 -5.65047
  endloop
endfacet
facet normal 0 -1 0
  outer loop
    vertex 6.82631 2.36308 0.979044
    vertex 10.1967 2.36308 -0.0280741
    vertex 9.70986 2.36308 2.48193
  endloop
endfacet
facet normal 0 -1 0
  outer loop
    vertex -0.803283 2.36308 -4.84811
    vertex 0.923841 2.36308 -7.67652
    vertex 2.83717 2.36308 -5.19011
  endloop
endfacet
facet normal 0 -1 -0
  outer loop
    vertex -0.803283 2.36308 -4.84811
    vertex -2.72321 2.36308 -7.18146
    vertex 0.923841 2.36308 -7.67652
  endloop
endfacet
facet normal 0 -1 -0
  outer loop
    vertex -7.02892 2.36308 7.30688
    vertex -8.78648 2.36308 5.40184
    vertex -5.91697 2.36308 4.19539
  endloop
endfacet
facet normal 0 -1 0
  outer loop
    vertex 5.51716 2.36308 7.39439
    vertex 2.67797 2.36308 6.84491
    vertex 4.65685 2.36308 3.93197
  endloop
endfacet
facet normal -0 -1 0
  outer loop
    vertex 5.51716 2.36308 7.39439
    vertex 3.92537 2.36308 9.5048
    vertex 2.67797 2.36308 6.84491
  endloop
endfacet
facet normal 0 -1 0
  outer loop
    vertex -7.07649 2.36308 0.668047
    vertex -10.3316 2.36308 0.286381
    vertex -9.23168 2.36308 -2.21717
  endloop
endfacet
endsolid Created by Gmsh
