# Exported by OpenCASCADE CAD Assistant [www.opencascade.com]
#  Vertices: 24
#     Faces: 12
mtllib softlayer20.mtl
g softlayer20
usemtl mat_1
v -10.000000 1.000000 -10.000000
v -10.000000 1.000000 10.000000
v -10.000000 0.000000 10.000000
v -10.000000 0.000000 -10.000000
vn -1.000000 0.000000 0.000000
vn -1.000000 0.000000 0.000000
vn -1.000000 0.000000 0.000000
vn -1.000000 0.000000 0.000000
f 3//3 2//2 1//1
f 3//3 1//1 4//4
v -10.000000 1.000000 10.000000
v 10.000000 1.000000 10.000000
v 10.000000 0.000000 10.000000
v -10.000000 0.000000 10.000000
vn 0.000000 0.000000 1.000000
vn 0.000000 0.000000 1.000000
vn 0.000000 0.000000 1.000000
vn 0.000000 0.000000 1.000000
f 7//7 6//6 5//5
f 7//7 5//5 8//8
v 10.000000 1.000000 10.000000
v 10.000000 1.000000 -10.000000
v 10.000000 0.000000 -10.000000
v 10.000000 0.000000 10.000000
vn 1.000000 0.000000 0.000000
vn 1.000000 0.000000 0.000000
vn 1.000000 0.000000 0.000000
vn 1.000000 0.000000 0.000000
f 11//11 10//10 9//9
f 11//11 9//9 12//12
v 10.000000 0.000000 -10.000000
v 10.000000 1.000000 -10.000000
v -10.000000 1.000000 -10.000000
v -10.000000 0.000000 -10.000000
vn 0.000000 0.000000 -1.000000
vn 0.000000 0.000000 -1.000000
vn 0.000000 0.000000 -1.000000
vn 0.000000 0.000000 -1.000000
f 16//16 14//14 13//13
f 16//16 15//15 14//14
v -10.000000 1.000000 10.000000
v 10.000000 1.000000 10.000000
v -10.000000 1.000000 -10.000000
v 10.000000 1.000000 -10.000000
vn 0.000000 1.000000 0.000000
vn 0.000000 1.000000 0.000000
vn 0.000000 1.000000 0.000000
vn 0.000000 1.000000 0.000000
f 19//19 17//17 18//18
f 19//19 18//18 20//20
v 10.000000 0.000000 10.000000
v 10.000000 0.000000 -10.000000
v -10.000000 0.000000 10.000000
v -10.000000 0.000000 -10.000000
vn 0.000000 -1.000000 0.000000
vn 0.000000 -1.000000 0.000000
vn 0.000000 -1.000000 0.000000
vn 0.000000 -1.000000 0.000000
f 24//24 22//22 21//21
f 24//24 21//21 23//23
